<svg width="3057" height="2200" xmlns="http://www.w3.org/2000/svg" xmlns:xlink="http://www.w3.org/1999/xlink" xml:space="preserve" overflow="hidden"><g transform="translate(-197 -27)"><g><rect x="1511.5" y="303.5" width="832" height="286" stroke="#0C5435" stroke-width="3.4375" stroke-linecap="butt" stroke-linejoin="miter" stroke-miterlimit="8" stroke-opacity="1" fill="#0C5435" fill-opacity="0.8"/><text fill="#FFFFFF" fill-opacity="1" font-family="Arial,Arial_MSFontService,sans-serif" font-style="normal" font-variant="normal" font-weight="400" font-stretch="normal" font-size="73" text-anchor="start" direction="ltr" writing-mode="lr-tb" unicode-bidi="normal" text-decoration="none" transform="matrix(1 0 0 1 1759.51 434)">Attribute 1</text><text fill="#FFFFFF" fill-opacity="1" font-family="Arial,Arial_MSFontService,sans-serif" font-style="normal" font-variant="normal" font-weight="400" font-stretch="normal" font-size="50" text-anchor="start" direction="ltr" writing-mode="lr-tb" unicode-bidi="normal" text-decoration="none" transform="matrix(1 0 0 1 1855.19 518)">Binar</text><text fill="#FFFFFF" fill-opacity="1" font-family="Arial,Arial_MSFontService,sans-serif" font-style="normal" font-variant="normal" font-weight="400" font-stretch="normal" font-size="50" text-anchor="start" direction="ltr" writing-mode="lr-tb" unicode-bidi="normal" text-decoration="none" transform="matrix(1 0 0 1 1973.21 518)">y</text><rect x="1069.5" y="849.5" width="832" height="286" stroke="#0C5435" stroke-width="3.4375" stroke-linecap="butt" stroke-linejoin="miter" stroke-miterlimit="8" stroke-opacity="1" fill="#0C5435" fill-opacity="0.8"/><text fill="#FFFFFF" fill-opacity="1" font-family="Arial,Arial_MSFontService,sans-serif" font-style="normal" font-variant="normal" font-weight="400" font-stretch="normal" font-size="73" text-anchor="start" direction="ltr" writing-mode="lr-tb" unicode-bidi="normal" text-decoration="none" transform="matrix(1 0 0 1 1317.73 977)">Attribute 2</text><text fill="#FFFFFF" fill-opacity="1" font-family="Arial,Arial_MSFontService,sans-serif" font-style="normal" font-variant="normal" font-weight="400" font-stretch="normal" font-size="55" text-anchor="start" direction="ltr" writing-mode="lr-tb" unicode-bidi="normal" text-decoration="none" transform="matrix(1 0 0 1 1361.85 1066)">Continous</text><rect x="1953.5" y="849.5" width="831" height="286" stroke="#0C5435" stroke-width="3.4375" stroke-linecap="butt" stroke-linejoin="miter" stroke-miterlimit="8" stroke-opacity="1" fill="#0C5435" fill-opacity="0.8"/><text fill="#FFFFFF" fill-opacity="1" font-family="Arial,Arial_MSFontService,sans-serif" font-style="normal" font-variant="normal" font-weight="400" font-stretch="normal" font-size="73" text-anchor="start" direction="ltr" writing-mode="lr-tb" unicode-bidi="normal" text-decoration="none" transform="matrix(1 0 0 1 2201.29 977)">Attribute 3</text><text fill="#FFFFFF" fill-opacity="1" font-family="Arial,Arial_MSFontService,sans-serif" font-style="normal" font-variant="normal" font-weight="400" font-stretch="normal" font-size="55" text-anchor="start" direction="ltr" writing-mode="lr-tb" unicode-bidi="normal" text-decoration="none" transform="matrix(1 0 0 1 2290.94 1066)">Binary</text><rect x="199.5" y="1395.5" width="402" height="286" stroke="#E14C03" stroke-width="3.4375" stroke-linecap="butt" stroke-linejoin="miter" stroke-miterlimit="8" stroke-opacity="1" fill="#E14C03" fill-opacity="0.8"/><text fill="#FFFFFF" fill-opacity="1" font-family="Arial,Arial_MSFontService,sans-serif" font-style="normal" font-variant="normal" font-weight="400" font-stretch="normal" font-size="73" text-anchor="start" direction="ltr" writing-mode="lr-tb" unicode-bidi="normal" text-decoration="none" transform="matrix(1 0 0 1 278.05 1565)">Class 1</text><rect x="653.5" y="1392.5" width="832" height="285" stroke="#0C5435" stroke-width="3.4375" stroke-linecap="butt" stroke-linejoin="miter" stroke-miterlimit="8" stroke-opacity="1" fill="#0C5435" fill-opacity="0.8"/><text fill="#FFFFFF" fill-opacity="1" font-family="Arial,Arial_MSFontService,sans-serif" font-style="normal" font-variant="normal" font-weight="400" font-stretch="normal" font-size="73" text-anchor="start" direction="ltr" writing-mode="lr-tb" unicode-bidi="normal" text-decoration="none" transform="matrix(1 0 0 1 901.936 1519)">Attribute 4</text><text fill="#FFFFFF" fill-opacity="1" font-family="Arial,Arial_MSFontService,sans-serif" font-style="normal" font-variant="normal" font-weight="400" font-stretch="normal" font-size="55" text-anchor="start" direction="ltr" writing-mode="lr-tb" unicode-bidi="normal" text-decoration="none" transform="matrix(1 0 0 1 991.586 1608)">Binar</text><text fill="#FFFFFF" fill-opacity="1" font-family="Arial,Arial_MSFontService,sans-serif" font-style="normal" font-variant="normal" font-weight="400" font-stretch="normal" font-size="55" text-anchor="start" direction="ltr" writing-mode="lr-tb" unicode-bidi="normal" text-decoration="none" transform="matrix(1 0 0 1 1119.35 1608)">y</text><rect x="1537.5" y="1395.5" width="832" height="286" stroke="#0C5435" stroke-width="3.4375" stroke-linecap="butt" stroke-linejoin="miter" stroke-miterlimit="8" stroke-opacity="1" fill="#0C5435" fill-opacity="0.8"/><text fill="#FFFFFF" fill-opacity="1" font-family="Arial,Arial_MSFontService,sans-serif" font-style="normal" font-variant="normal" font-weight="400" font-stretch="normal" font-size="73" text-anchor="start" direction="ltr" writing-mode="lr-tb" unicode-bidi="normal" text-decoration="none" transform="matrix(1 0 0 1 1785.5 1523)">Attribute 5</text><text fill="#FFFFFF" fill-opacity="1" font-family="Arial,Arial_MSFontService,sans-serif" font-style="normal" font-variant="normal" font-weight="400" font-stretch="normal" font-size="55" text-anchor="start" direction="ltr" writing-mode="lr-tb" unicode-bidi="normal" text-decoration="none" transform="matrix(1 0 0 1 1829.61 1612)">Continou</text><text fill="#FFFFFF" fill-opacity="1" font-family="Arial,Arial_MSFontService,sans-serif" font-style="normal" font-variant="normal" font-weight="400" font-stretch="normal" font-size="55" text-anchor="start" direction="ltr" writing-mode="lr-tb" unicode-bidi="normal" text-decoration="none" transform="matrix(1 0 0 1 2048.47 1612)">s</text><rect x="1082.5" y="1939.5" width="403" height="286" stroke="#E14C03" stroke-width="3.4375" stroke-linecap="butt" stroke-linejoin="miter" stroke-miterlimit="8" stroke-opacity="1" fill="#E14C03" fill-opacity="0.8"/><text fill="#FFFFFF" fill-opacity="1" font-family="Arial,Arial_MSFontService,sans-serif" font-style="normal" font-variant="normal" font-weight="400" font-stretch="normal" font-size="73" text-anchor="start" direction="ltr" writing-mode="lr-tb" unicode-bidi="normal" text-decoration="none" transform="matrix(1 0 0 1 1161.61 2109)">Class 2</text><rect x="653.5" y="1939.5" width="403" height="286" stroke="#E14C03" stroke-width="3.4375" stroke-linecap="butt" stroke-linejoin="miter" stroke-miterlimit="8" stroke-opacity="1" fill="#E14C03" fill-opacity="0.8"/><text fill="#FFFFFF" fill-opacity="1" font-family="Arial,Arial_MSFontService,sans-serif" font-style="normal" font-variant="normal" font-weight="400" font-stretch="normal" font-size="73" text-anchor="start" direction="ltr" writing-mode="lr-tb" unicode-bidi="normal" text-decoration="none" transform="matrix(1 0 0 1 732.777 2109)">Class 1</text><path d="M0.871441-1.48145 422.901 246.771 421.158 249.734-0.871441 1.48145ZM425.05 234.077 441.781 259.871 411.107 257.78Z" fill="#000000" fill-rule="nonzero" fill-opacity="1" transform="matrix(-1 0 0 1 1927.28 589.5)"/><path d="M1928.37 588.019 2350.4 836.271 2348.66 839.234 1926.63 590.982ZM2352.55 823.577 2369.28 849.371 2338.61 847.28Z" fill="#000000" fill-rule="nonzero" fill-opacity="1"/><path d="M0.40036-1.67147 1063.06 252.863 1062.26 256.206-0.40036 1.67147ZM1061.4 240.094 1084.94 259.871 1054.99 266.837Z" fill="#000000" fill-rule="nonzero" fill-opacity="1" transform="matrix(-1 0 0 1 1485.44 1135.5)"/><path d="M0.90236-1.46282 397.192 242.994 395.387 245.919-0.90236 1.46282ZM399.608 230.348 415.794 256.488 385.17 253.753Z" fill="#000000" fill-rule="nonzero" fill-opacity="1" transform="matrix(-1 0 0 1 1485.29 1135.5)"/><path d="M1.32964-1.08911 201.228 242.958 198.569 245.136-1.32964 1.08911ZM207.631 231.788 214.42 261.775 186.357 249.214Z" fill="#000000" fill-rule="nonzero" fill-opacity="1" transform="matrix(-1 0 0 1 1069.92 1677.5)"/><path d="M1070.83 1676.41 1270.72 1920.46 1268.07 1922.64 1068.17 1678.59ZM1277.13 1909.29 1283.92 1939.28 1255.85 1926.71Z" fill="#000000" fill-rule="nonzero" fill-opacity="1"/><path d="M1486.33 1134 1934.07 1382.74 1932.4 1385.74 1484.67 1137ZM1935.91 1370 1953.27 1395.37 1922.55 1394.04Z" fill="#000000" fill-rule="nonzero" fill-opacity="1"/><rect x="2847.5" y="1392.5" width="403" height="285" stroke="#E14C03" stroke-width="3.4375" stroke-linecap="butt" stroke-linejoin="miter" stroke-miterlimit="8" stroke-opacity="1" fill="#E14C03" fill-opacity="0.8"/><text fill="#FFFFFF" fill-opacity="1" font-family="Arial,Arial_MSFontService,sans-serif" font-style="normal" font-variant="normal" font-weight="400" font-stretch="normal" font-size="73" text-anchor="start" direction="ltr" writing-mode="lr-tb" unicode-bidi="normal" text-decoration="none" transform="matrix(1 0 0 1 2926.58 1561)">Class 2</text><rect x="2418.5" y="1392.5" width="403" height="285" stroke="#E14C03" stroke-width="3.4375" stroke-linecap="butt" stroke-linejoin="miter" stroke-miterlimit="8" stroke-opacity="1" fill="#E14C03" fill-opacity="0.8"/><text fill="#FFFFFF" fill-opacity="1" font-family="Arial,Arial_MSFontService,sans-serif" font-style="normal" font-variant="normal" font-weight="400" font-stretch="normal" font-size="73" text-anchor="start" direction="ltr" writing-mode="lr-tb" unicode-bidi="normal" text-decoration="none" transform="matrix(1 0 0 1 2497.74 1561)">Class 1</text><path d="M2367.72 1134.29 2604.97 1374.48 2602.52 1376.89 2365.28 1136.71ZM2610.31 1362.76 2619.85 1391.99 2590.74 1382.09Z" fill="#000000" fill-rule="nonzero" fill-opacity="1"/><path d="M2370.11 1133.89 3028.69 1382.29 3027.48 1385.51 2368.89 1137.11ZM3028.65 1369.42 3049.52 1391.99 3018.94 1395.15Z" fill="#000000" fill-rule="nonzero" fill-opacity="1"/><rect x="1537.5" y="1939.5" width="403" height="286" stroke="#E14C03" stroke-width="3.4375" stroke-linecap="butt" stroke-linejoin="miter" stroke-miterlimit="8" stroke-opacity="1" fill="#E14C03" fill-opacity="0.8"/><text fill="#FFFFFF" fill-opacity="1" font-family="Arial,Arial_MSFontService,sans-serif" font-style="normal" font-variant="normal" font-weight="400" font-stretch="normal" font-size="73" text-anchor="start" direction="ltr" writing-mode="lr-tb" unicode-bidi="normal" text-decoration="none" transform="matrix(1 0 0 1 1616.34 2109)">Class 1</text><path d="M1.32266-1.09757 201.107 239.659 198.462 241.854-1.32266 1.09757ZM207.439 228.449 214.419 258.392 186.277 246.01Z" fill="#000000" fill-rule="nonzero" fill-opacity="1" transform="matrix(-1 0 0 1 1952.92 1681.5)"/><rect x="1962.5" y="1939.5" width="402" height="286" stroke="#E14C03" stroke-width="3.4375" stroke-linecap="butt" stroke-linejoin="miter" stroke-miterlimit="8" stroke-opacity="1" fill="#E14C03" fill-opacity="0.8"/><text fill="#FFFFFF" fill-opacity="1" font-family="Arial,Arial_MSFontService,sans-serif" font-style="normal" font-variant="normal" font-weight="400" font-stretch="normal" font-size="73" text-anchor="start" direction="ltr" writing-mode="lr-tb" unicode-bidi="normal" text-decoration="none" transform="matrix(1 0 0 1 2040.86 2109)">Class 2</text><path d="M1949.83 1676.41 2149.72 1920.46 2147.07 1922.64 1947.17 1678.59ZM2156.13 1909.29 2162.92 1939.28 2134.85 1926.71Z" fill="#000000" fill-rule="nonzero" fill-opacity="1"/><text fill="#000000" fill-opacity="1" font-family="Aptos,Aptos_MSFontService,sans-serif" font-style="normal" font-variant="normal" font-weight="400" font-stretch="normal" font-size="73" text-anchor="start" direction="ltr" writing-mode="lr-tb" unicode-bidi="normal" text-decoration="none" transform="matrix(1 0 0 1 1928.7 120)">x</text><path d="M1928.5 181.5 1937 181.5 1937 152.5 1954 152.5 1954 181.5 1962.5 181.5 1945.5 198.5Z" stroke="#000000" stroke-width="3.4375" stroke-linecap="butt" stroke-linejoin="miter" stroke-miterlimit="8" stroke-opacity="1" fill="#404040" fill-rule="evenodd" fill-opacity="1"/><text fill="#000000" fill-opacity="1" font-family="Aptos,Aptos_MSFontService,sans-serif" font-style="normal" font-variant="normal" font-weight="400" font-stretch="normal" font-size="73" text-anchor="start" direction="ltr" writing-mode="lr-tb" unicode-bidi="normal" text-decoration="none" transform="matrix(1 0 0 1 1511.01 710)">x</text><text fill="#000000" fill-opacity="1" font-family="Aptos,Aptos_MSFontService,sans-serif" font-style="normal" font-variant="normal" font-weight="400" font-stretch="normal" font-size="73" text-anchor="start" direction="ltr" writing-mode="lr-tb" unicode-bidi="normal" text-decoration="none" transform="matrix(1 0 0 1 1543.67 710)">=0</text><text fill="#000000" fill-opacity="1" font-family="Aptos,Aptos_MSFontService,sans-serif" font-style="normal" font-variant="normal" font-weight="400" font-stretch="normal" font-size="73" text-anchor="start" direction="ltr" writing-mode="lr-tb" unicode-bidi="normal" text-decoration="none" transform="matrix(1 0 0 1 2230.95 710)">x</text><text fill="#000000" fill-opacity="1" font-family="Aptos,Aptos_MSFontService,sans-serif" font-style="normal" font-variant="normal" font-weight="400" font-stretch="normal" font-size="73" text-anchor="start" direction="ltr" writing-mode="lr-tb" unicode-bidi="normal" text-decoration="none" transform="matrix(1 0 0 1 2263.6 710)">=1</text><text fill="#000000" fill-opacity="1" font-family="Aptos,Aptos_MSFontService,sans-serif" font-style="normal" font-variant="normal" font-weight="400" font-stretch="normal" font-size="73" text-anchor="start" direction="ltr" writing-mode="lr-tb" unicode-bidi="normal" text-decoration="none" transform="matrix(1 0 0 1 801.061 1799)">x</text><text fill="#000000" fill-opacity="1" font-family="Aptos,Aptos_MSFontService,sans-serif" font-style="normal" font-variant="normal" font-weight="400" font-stretch="normal" font-size="73" text-anchor="start" direction="ltr" writing-mode="lr-tb" unicode-bidi="normal" text-decoration="none" transform="matrix(1 0 0 1 833.717 1799)">=0</text><text fill="#000000" fill-opacity="1" font-family="Aptos,Aptos_MSFontService,sans-serif" font-style="normal" font-variant="normal" font-weight="400" font-stretch="normal" font-size="73" text-anchor="start" direction="ltr" writing-mode="lr-tb" unicode-bidi="normal" text-decoration="none" transform="matrix(1 0 0 1 1206.56 1799)">x</text><text fill="#000000" fill-opacity="1" font-family="Aptos,Aptos_MSFontService,sans-serif" font-style="normal" font-variant="normal" font-weight="400" font-stretch="normal" font-size="73" text-anchor="start" direction="ltr" writing-mode="lr-tb" unicode-bidi="normal" text-decoration="none" transform="matrix(1 0 0 1 1239.22 1799)">=1</text><text fill="#000000" fill-opacity="1" font-family="Aptos,Aptos_MSFontService,sans-serif" font-style="normal" font-variant="normal" font-weight="400" font-stretch="normal" font-size="73" text-anchor="start" direction="ltr" writing-mode="lr-tb" unicode-bidi="normal" text-decoration="none" transform="matrix(1 0 0 1 1682.56 1799)">x</text><text fill="#000000" fill-opacity="1" font-family="Aptos,Aptos_MSFontService,sans-serif" font-style="normal" font-variant="normal" font-weight="400" font-stretch="normal" font-size="73" text-anchor="start" direction="ltr" writing-mode="lr-tb" unicode-bidi="normal" text-decoration="none" transform="matrix(1 0 0 1 1715.22 1799)">&lt;</text><text fill="#000000" fill-opacity="1" font-family="Aptos,Aptos_MSFontService,sans-serif" font-style="normal" font-variant="normal" font-weight="400" font-stretch="normal" font-size="73" text-anchor="start" direction="ltr" writing-mode="lr-tb" unicode-bidi="normal" text-decoration="none" transform="matrix(1 0 0 1 1754.18 1799)">1</text><text fill="#000000" fill-opacity="1" font-family="Aptos,Aptos_MSFontService,sans-serif" font-style="normal" font-variant="normal" font-weight="400" font-stretch="normal" font-size="73" text-anchor="start" direction="ltr" writing-mode="lr-tb" unicode-bidi="normal" text-decoration="none" transform="matrix(1 0 0 1 2088.06 1799)">x</text><text fill="#000000" fill-opacity="1" font-family="Aptos,Aptos_MSFontService,sans-serif" font-style="normal" font-variant="normal" font-weight="400" font-stretch="normal" font-size="73" text-anchor="start" direction="ltr" writing-mode="lr-tb" unicode-bidi="normal" text-decoration="none" transform="matrix(1 0 0 1 2120.72 1799)">&gt;</text><text fill="#000000" fill-opacity="1" font-family="Aptos,Aptos_MSFontService,sans-serif" font-style="normal" font-variant="normal" font-weight="400" font-stretch="normal" font-size="73" text-anchor="start" direction="ltr" writing-mode="lr-tb" unicode-bidi="normal" text-decoration="none" transform="matrix(1 0 0 1 2159.68 1799)">1</text><text fill="#000000" fill-opacity="1" font-family="Aptos,Aptos_MSFontService,sans-serif" font-style="normal" font-variant="normal" font-weight="400" font-stretch="normal" font-size="73" text-anchor="start" direction="ltr" writing-mode="lr-tb" unicode-bidi="normal" text-decoration="none" transform="matrix(1 0 0 1 664.453 1287)">x</text><text fill="#000000" fill-opacity="1" font-family="Aptos,Aptos_MSFontService,sans-serif" font-style="normal" font-variant="normal" font-weight="400" font-stretch="normal" font-size="73" text-anchor="start" direction="ltr" writing-mode="lr-tb" unicode-bidi="normal" text-decoration="none" transform="matrix(1 0 0 1 697.109 1287)">&lt;0</text><text fill="#000000" fill-opacity="1" font-family="Aptos,Aptos_MSFontService,sans-serif" font-style="normal" font-variant="normal" font-weight="400" font-stretch="normal" font-size="73" text-anchor="start" direction="ltr" writing-mode="lr-tb" unicode-bidi="normal" text-decoration="none" transform="matrix(1 0 0 1 1258.16 1344)">0&lt;x</text><text fill="#000000" fill-opacity="1" font-family="Aptos,Aptos_MSFontService,sans-serif" font-style="normal" font-variant="normal" font-weight="400" font-stretch="normal" font-size="73" text-anchor="start" direction="ltr" writing-mode="lr-tb" unicode-bidi="normal" text-decoration="none" transform="matrix(1 0 0 1 1368.73 1344)">&lt;1</text><text fill="#000000" fill-opacity="1" font-family="Aptos,Aptos_MSFontService,sans-serif" font-style="normal" font-variant="normal" font-weight="400" font-stretch="normal" font-size="73" text-anchor="start" direction="ltr" writing-mode="lr-tb" unicode-bidi="normal" text-decoration="none" transform="matrix(1 0 0 1 1446.65 1344)">0</text><text fill="#000000" fill-opacity="1" font-family="Aptos,Aptos_MSFontService,sans-serif" font-style="normal" font-variant="normal" font-weight="400" font-stretch="normal" font-size="73" text-anchor="start" direction="ltr" writing-mode="lr-tb" unicode-bidi="normal" text-decoration="none" transform="matrix(1 0 0 1 1724.31 1261)">x</text><text fill="#000000" fill-opacity="1" font-family="Aptos,Aptos_MSFontService,sans-serif" font-style="normal" font-variant="normal" font-weight="400" font-stretch="normal" font-size="73" text-anchor="start" direction="ltr" writing-mode="lr-tb" unicode-bidi="normal" text-decoration="none" transform="matrix(1 0 0 1 1756.96 1261)">&gt;</text><text fill="#000000" fill-opacity="1" font-family="Aptos,Aptos_MSFontService,sans-serif" font-style="normal" font-variant="normal" font-weight="400" font-stretch="normal" font-size="73" text-anchor="start" direction="ltr" writing-mode="lr-tb" unicode-bidi="normal" text-decoration="none" transform="matrix(1 0 0 1 1795.92 1261)">1</text><text fill="#000000" fill-opacity="1" font-family="Aptos,Aptos_MSFontService,sans-serif" font-style="normal" font-variant="normal" font-weight="400" font-stretch="normal" font-size="73" text-anchor="start" direction="ltr" writing-mode="lr-tb" unicode-bidi="normal" text-decoration="none" transform="matrix(1 0 0 1 1834.88 1261)">0</text><text fill="#000000" fill-opacity="1" font-family="Aptos,Aptos_MSFontService,sans-serif" font-style="normal" font-variant="normal" font-weight="400" font-stretch="normal" font-size="73" text-anchor="start" direction="ltr" writing-mode="lr-tb" unicode-bidi="normal" text-decoration="none" transform="matrix(1 0 0 1 2353.94 1311)">x</text><text fill="#000000" fill-opacity="1" font-family="Aptos,Aptos_MSFontService,sans-serif" font-style="normal" font-variant="normal" font-weight="400" font-stretch="normal" font-size="73" text-anchor="start" direction="ltr" writing-mode="lr-tb" unicode-bidi="normal" text-decoration="none" transform="matrix(1 0 0 1 2386.59 1311)">=0</text><text fill="#000000" fill-opacity="1" font-family="Aptos,Aptos_MSFontService,sans-serif" font-style="normal" font-variant="normal" font-weight="400" font-stretch="normal" font-size="73" text-anchor="start" direction="ltr" writing-mode="lr-tb" unicode-bidi="normal" text-decoration="none" transform="matrix(1 0 0 1 2747.13 1242)">x</text><text fill="#000000" fill-opacity="1" font-family="Aptos,Aptos_MSFontService,sans-serif" font-style="normal" font-variant="normal" font-weight="400" font-stretch="normal" font-size="73" text-anchor="start" direction="ltr" writing-mode="lr-tb" unicode-bidi="normal" text-decoration="none" transform="matrix(1 0 0 1 2779.79 1242)">=1</text></g></g></svg>