<svg width="1861" height="1288" xmlns="http://www.w3.org/2000/svg" xmlns:xlink="http://www.w3.org/1999/xlink" xml:space="preserve" overflow="hidden"><g transform="translate(-1164 -517)"><g><g><g><g><path d="M306.584 209.525 260.879 209.525C241.365 209.525 225.445 224.931 225.445 244.446L225.445 282.448 202.335 282.448 202.335 252.149C202.335 241.365 202.849 227.499 195.146 218.769 190.524 213.633 185.389 209.525 179.74 205.417 175.631 202.849 171.523 199.768 168.442 195.659 166.901 193.605 165.874 191.037 164.847 188.47 171.009 185.902 177.685 185.389 183.848 185.902 186.929 185.902 189.497 183.848 189.497 180.767 190.01 177.685 187.956 175.118 185.389 174.091 177.685 173.064 169.469 174.091 161.766 176.658 161.766 175.631 161.766 174.604 161.252 174.091 160.739 169.469 161.766 164.847 162.793 160.225 166.901 149.441 177.172 144.819 186.929 141.224 188.47 140.71 190.524 140.197 193.092 139.683L194.632 139.17 195.146 139.17C197.714 139.683 199.768 140.197 201.822 140.71L204.39 141.224 207.471 141.737C212.606 147.9 215.174 155.603 214.66 163.306 214.147 171.009 210.552 178.199 204.39 183.334 202.335 185.389 201.822 188.983 203.876 191.551 205.93 193.605 209.011 194.119 211.579 192.065 215.174 188.983 218.255 185.389 220.309 181.28L220.823 181.28C229.553 180.253 238.283 177.685 245.986 173.577 247.014 172.55 248.041 171.523 248.554 169.982 249.068 168.442 248.554 166.901 247.527 165.874 245.473 163.306 242.392 162.793 239.824 164.333 235.202 166.901 230.58 168.955 224.931 169.469 225.445 167.928 225.958 165.874 225.958 164.333 226.472 157.657 225.445 150.981 222.877 145.332 226.985 145.846 231.094 146.359 235.202 146.359 238.797 146.359 242.392 145.846 245.986 145.332 252.662 153.549 261.393 159.198 271.664 161.766 285.016 168.442 297.341 177.172 297.341 191.551 297.341 193.605 298.368 196.173 299.908 197.2 301.962 198.227 304.017 198.227 306.071 197.2 308.125 196.173 309.152 193.605 308.638 191.551 308.638 180.253 303.503 169.982 294.773 163.306 301.962 162.793 308.125 159.198 312.747 154.062 314.801 151.495 314.287 147.9 312.233 145.846 309.666 143.792 306.071 144.305 304.017 146.359 301.449 149.441 294.773 152.008 285.016 151.495 275.258 151.495 265.501 147.9 258.311 141.737 266.528 138.143 273.718 131.98 278.34 124.277 279.88 121.709 278.853 118.115 276.285 116.06 273.718 114.52 270.123 115.547 268.582 118.115 259.852 134.034 241.365 138.656 212.093 131.467 218.769 125.818 221.85 117.087 220.823 108.357 220.823 106.303 219.796 104.249 217.742 103.222 215.687 102.195 213.633 102.195 211.579 103.735 209.525 104.762 209.011 107.33 209.011 109.384 209.525 122.736 202.335 125.304 190.524 128.899 188.983 129.412 186.929 129.926 185.389 130.44 182.307 123.25 175.631 117.601 167.928 115.547 165.874 115.033 163.82 115.547 162.279 117.087 160.739 118.628 160.225 120.682 160.739 123.25 161.252 125.304 162.793 126.845 165.36 127.358 169.469 128.385 172.55 131.467 174.604 135.061L174.604 135.575C164.847 139.683 157.144 147.386 153.549 157.144 152.522 159.198 152.008 161.766 152.008 164.333 150.981 163.306 149.954 162.279 149.441 160.739 147.386 156.63 145.846 151.495 145.332 146.873 144.819 144.819 143.278 142.765 141.737 142.251 139.683 141.224 137.629 141.737 136.089 143.278 134.548 144.819 133.521 146.873 134.548 148.927 135.575 155.09 137.116 160.739 140.197 165.874 143.278 171.009 147.386 175.118 153.035 177.685 153.549 184.875 156.117 192.065 159.711 198.741 156.117 203.362 151.495 206.957 146.359 210.039 144.819 211.066 143.792 213.12 143.278 215.174 143.278 217.228 144.305 219.282 146.359 220.309 148.414 221.336 150.468 221.336 152.008 219.796 157.144 216.201 161.766 212.606 165.874 207.984 168.955 210.552 172.036 212.606 175.118 214.66 180.253 217.742 184.361 221.336 188.47 225.958 193.092 231.607 193.092 242.392 193.092 251.635L193.092 282.448 169.469 282.448C169.469 244.446 150.981 242.392 148.927 241.365 141.224 239.31 121.196 228.526 116.574 206.957 116.06 205.93 116.06 204.39 116.06 203.362 107.33 191.037 107.844 174.091 117.601 162.279 116.574 158.684 116.06 155.09 116.06 151.495 116.06 135.061 127.872 120.682 144.305 117.601 149.441 103.222 162.793 93.4646 177.685 93.9781 180.253 93.9781 183.334 94.4917 185.902 95.0052 192.065 87.8156 200.795 83.7073 210.552 82.6802 220.309 82.1667 229.553 85.2479 236.743 91.9239 245.986 85.7615 257.284 84.2208 267.555 87.3021 278.34 90.3833 286.556 98.6 290.151 108.871L292.205 108.871C311.72 108.871 327.126 124.277 327.64 143.792L327.64 145.332C339.451 152.008 346.127 164.847 345.1 178.199 340.992 196.173 325.072 210.039 306.584 209.525ZM415.969 263.447 380.534 202.335 380.534 200.281C382.589 143.792 353.83 90.8969 305.044 62.6521 256.257 33.8937 196.173 33.8937 147.386 62.6521 98.6 90.8969 69.8417 143.792 71.8958 200.281 71.8958 248.554 93.9781 294.259 132.494 323.531L132.494 451.917 294.773 451.917 294.773 390.805 319.936 390.805C336.37 390.805 351.776 384.643 363.074 372.831 374.372 361.533 380.534 345.614 380.534 329.694L380.534 298.881 403.13 298.881C416.482 297.854 428.294 282.448 415.969 263.447Z" fill="#94B4AC" fill-rule="nonzero" fill-opacity="1" transform="matrix(1 0 0 1.00203 1905 872)"/></g></g></g><path d="M1597 1119C1597 828.498 1834.51 593 2127.5 593 2420.49 593 2658 828.498 2658 1119 2658 1409.5 2420.49 1645 2127.5 1645 1834.51 1645 1597 1409.5 1597 1119Z" stroke="#456658" stroke-width="27.5" stroke-linecap="butt" stroke-linejoin="miter" stroke-miterlimit="8" stroke-opacity="1" fill="none" fill-rule="evenodd"/><path d="M2296.5 639.5C2296.5 603.601 2325.6 574.5 2361.5 574.5 2397.4 574.5 2426.5 603.601 2426.5 639.5 2426.5 675.398 2397.4 704.5 2361.5 704.5 2325.6 704.5 2296.5 675.398 2296.5 639.5Z" stroke="#106841" stroke-width="3.4375" stroke-linecap="butt" stroke-linejoin="miter" stroke-miterlimit="8" stroke-opacity="1" fill="#C0D7B5" fill-rule="evenodd" fill-opacity="1"/><path d="M2576.5 986.5C2576.5 950.602 2605.6 921.5 2641.5 921.5 2677.4 921.5 2706.5 950.602 2706.5 986.5 2706.5 1022.4 2677.4 1051.5 2641.5 1051.5 2605.6 1051.5 2576.5 1022.4 2576.5 986.5Z" stroke="#106841" stroke-width="3.4375" stroke-linecap="butt" stroke-linejoin="miter" stroke-miterlimit="8" stroke-opacity="1" fill="#A0BCB5" fill-rule="evenodd" fill-opacity="1"/><path d="M2593.5 1136.5C2593.5 1100.6 2622.6 1071.5 2658.5 1071.5 2694.4 1071.5 2723.5 1100.6 2723.5 1136.5 2723.5 1172.4 2694.4 1201.5 2658.5 1201.5 2622.6 1201.5 2593.5 1172.4 2593.5 1136.5Z" stroke="#106841" stroke-width="3.4375" stroke-linecap="butt" stroke-linejoin="miter" stroke-miterlimit="8" stroke-opacity="1" fill="#A0BCB5" fill-rule="evenodd" fill-opacity="1"/><path d="M2572.5 1287.5C2572.5 1251.6 2601.6 1222.5 2637.5 1222.5 2673.4 1222.5 2702.5 1251.6 2702.5 1287.5 2702.5 1323.4 2673.4 1352.5 2637.5 1352.5 2601.6 1352.5 2572.5 1323.4 2572.5 1287.5Z" stroke="#106841" stroke-width="3.4375" stroke-linecap="butt" stroke-linejoin="miter" stroke-miterlimit="8" stroke-opacity="1" fill="#A0BCB5" fill-rule="evenodd" fill-opacity="1"/><path d="M2494.5 1417.5C2494.5 1381.6 2523.6 1352.5 2559.5 1352.5 2595.4 1352.5 2624.5 1381.6 2624.5 1417.5 2624.5 1453.4 2595.4 1482.5 2559.5 1482.5 2523.6 1482.5 2494.5 1453.4 2494.5 1417.5Z" stroke="#106841" stroke-width="3.4375" stroke-linecap="butt" stroke-linejoin="miter" stroke-miterlimit="8" stroke-opacity="1" fill="#A0BCB5" fill-rule="evenodd" fill-opacity="1"/><path d="M2381.5 1547.5C2381.5 1511.6 2410.6 1482.5 2446.5 1482.5 2482.4 1482.5 2511.5 1511.6 2511.5 1547.5 2511.5 1583.4 2482.4 1612.5 2446.5 1612.5 2410.6 1612.5 2381.5 1583.4 2381.5 1547.5Z" stroke="#106841" stroke-width="3.4375" stroke-linecap="butt" stroke-linejoin="miter" stroke-miterlimit="8" stroke-opacity="1" fill="#A0BCB5" fill-rule="evenodd" fill-opacity="1"/><path d="M2226.5 1599.5C2226.5 1563.6 2255.6 1534.5 2291.5 1534.5 2327.4 1534.5 2356.5 1563.6 2356.5 1599.5 2356.5 1635.4 2327.4 1664.5 2291.5 1664.5 2255.6 1664.5 2226.5 1635.4 2226.5 1599.5Z" stroke="#106841" stroke-width="3.4375" stroke-linecap="butt" stroke-linejoin="miter" stroke-miterlimit="8" stroke-opacity="1" fill="#A0BCB5" fill-rule="evenodd" fill-opacity="1"/><path d="M2077.5 1636.5C2077.5 1600.6 2106.6 1571.5 2142.5 1571.5 2178.4 1571.5 2207.5 1600.6 2207.5 1636.5 2207.5 1672.4 2178.4 1701.5 2142.5 1701.5 2106.6 1701.5 2077.5 1672.4 2077.5 1636.5Z" stroke="#106841" stroke-width="3.4375" stroke-linecap="butt" stroke-linejoin="miter" stroke-miterlimit="8" stroke-opacity="1" fill="#A0BCB5" fill-rule="evenodd" fill-opacity="1"/><path d="M1912.5 1624.5C1912.5 1588.6 1941.6 1559.5 1977.5 1559.5 2013.4 1559.5 2042.5 1588.6 2042.5 1624.5 2042.5 1660.4 2013.4 1689.5 1977.5 1689.5 1941.6 1689.5 1912.5 1660.4 1912.5 1624.5Z" stroke="#106841" stroke-width="3.4375" stroke-linecap="butt" stroke-linejoin="miter" stroke-miterlimit="8" stroke-opacity="1" fill="#A0BCB5" fill-rule="evenodd" fill-opacity="1"/><path d="M1541.5 1038.5C1541.5 1002.6 1570.6 973.5 1606.5 973.5 1642.4 973.5 1671.5 1002.6 1671.5 1038.5 1671.5 1074.4 1642.4 1103.5 1606.5 1103.5 1570.6 1103.5 1541.5 1074.4 1541.5 1038.5Z" stroke="#106841" stroke-width="3.4375" stroke-linecap="butt" stroke-linejoin="miter" stroke-miterlimit="8" stroke-opacity="1" fill="#62917D" fill-rule="evenodd" fill-opacity="1"/><path d="M1581.5 889.5C1581.5 853.602 1610.6 824.5 1646.5 824.5 1682.4 824.5 1711.5 853.602 1711.5 889.5 1711.5 925.399 1682.4 954.5 1646.5 954.5 1610.6 954.5 1581.5 925.399 1581.5 889.5Z" stroke="#106841" stroke-width="3.4375" stroke-linecap="butt" stroke-linejoin="miter" stroke-miterlimit="8" stroke-opacity="1" fill="#62917D" fill-rule="evenodd" fill-opacity="1"/><path d="M1676.5 761.5C1676.5 725.601 1705.6 696.5 1741.5 696.5 1777.4 696.5 1806.5 725.601 1806.5 761.5 1806.5 797.398 1777.4 826.5 1741.5 826.5 1705.6 826.5 1676.5 797.398 1676.5 761.5Z" stroke="#106841" stroke-width="3.4375" stroke-linecap="butt" stroke-linejoin="miter" stroke-miterlimit="8" stroke-opacity="1" fill="#62917D" fill-rule="evenodd" fill-opacity="1"/><path d="M2121.5 536.5 2121.5 642.705" stroke="#106841" stroke-width="20.625" stroke-linecap="butt" stroke-linejoin="miter" stroke-miterlimit="8" stroke-opacity="1" fill="#990000" fill-rule="evenodd" fill-opacity="1"/><text fill="#000000" fill-opacity="1" font-family="Aptos,Aptos_MSFontService,sans-serif" font-style="normal" font-variant="normal" font-weight="400" font-stretch="normal" font-size="50" text-anchor="start" direction="ltr" writing-mode="lr-tb" unicode-bidi="normal" text-decoration="none" transform="matrix(1 0 0 1 2398.45 583)">Less education</text><text fill="#000000" fill-opacity="1" font-family="Aptos,Aptos_MSFontService,sans-serif" font-style="normal" font-variant="normal" font-weight="400" font-stretch="normal" font-size="50" text-anchor="start" direction="ltr" writing-mode="lr-tb" unicode-bidi="normal" text-decoration="none" transform="matrix(1 0 0 1 2710.3 989)">H</text><text fill="#000000" fill-opacity="1" font-family="Aptos,Aptos_MSFontService,sans-serif" font-style="normal" font-variant="normal" font-weight="400" font-stretch="normal" font-size="50" text-anchor="start" direction="ltr" writing-mode="lr-tb" unicode-bidi="normal" text-decoration="none" transform="matrix(1 0 0 1 2745.82 989)">e</text><text fill="#000000" fill-opacity="1" font-family="Aptos,Aptos_MSFontService,sans-serif" font-style="normal" font-variant="normal" font-weight="400" font-stretch="normal" font-size="50" text-anchor="start" direction="ltr" writing-mode="lr-tb" unicode-bidi="normal" text-decoration="none" transform="matrix(1 0 0 1 2772.17 989)">aring loss</text><text fill="#000000" fill-opacity="1" font-family="Aptos,Aptos_MSFontService,sans-serif" font-style="normal" font-variant="normal" font-weight="400" font-stretch="normal" font-size="50" text-anchor="start" direction="ltr" writing-mode="lr-tb" unicode-bidi="normal" text-decoration="none" transform="matrix(1 0 0 1 2735.99 1113)">High LDL </text><text fill="#000000" fill-opacity="1" font-family="Aptos,Aptos_MSFontService,sans-serif" font-style="normal" font-variant="normal" font-weight="400" font-stretch="normal" font-size="50" text-anchor="start" direction="ltr" writing-mode="lr-tb" unicode-bidi="normal" text-decoration="none" transform="matrix(1 0 0 1 2735.99 1173)">cholesterol</text><text fill="#000000" fill-opacity="1" font-family="Aptos,Aptos_MSFontService,sans-serif" font-style="normal" font-variant="normal" font-weight="400" font-stretch="normal" font-size="50" text-anchor="start" direction="ltr" writing-mode="lr-tb" unicode-bidi="normal" text-decoration="none" transform="matrix(1 0 0 1 2718.51 1304)">Depression</text><text fill="#000000" fill-opacity="1" font-family="Aptos,Aptos_MSFontService,sans-serif" font-style="normal" font-variant="normal" font-weight="400" font-stretch="normal" font-size="50" text-anchor="start" direction="ltr" writing-mode="lr-tb" unicode-bidi="normal" text-decoration="none" transform="matrix(1 0 0 1 2641.67 1467)">Traumatic brain </text><text fill="#000000" fill-opacity="1" font-family="Aptos,Aptos_MSFontService,sans-serif" font-style="normal" font-variant="normal" font-weight="400" font-stretch="normal" font-size="50" text-anchor="start" direction="ltr" writing-mode="lr-tb" unicode-bidi="normal" text-decoration="none" transform="matrix(1 0 0 1 2641.67 1527)">injury</text><text fill="#000000" fill-opacity="1" font-family="Aptos,Aptos_MSFontService,sans-serif" font-style="normal" font-variant="normal" font-weight="400" font-stretch="normal" font-size="50" text-anchor="start" direction="ltr" writing-mode="lr-tb" unicode-bidi="normal" text-decoration="none" transform="matrix(1 0 0 1 2499.4 1639)">Physical inactivity</text><text fill="#000000" fill-opacity="1" font-family="Aptos,Aptos_MSFontService,sans-serif" font-style="normal" font-variant="normal" font-weight="400" font-stretch="normal" font-size="50" text-anchor="start" direction="ltr" writing-mode="lr-tb" unicode-bidi="normal" text-decoration="none" transform="matrix(1 0 0 1 2305.7 1720)">Diabetes</text><text fill="#000000" fill-opacity="1" font-family="Aptos,Aptos_MSFontService,sans-serif" font-style="normal" font-variant="normal" font-weight="400" font-stretch="normal" font-size="50" text-anchor="start" direction="ltr" writing-mode="lr-tb" unicode-bidi="normal" text-decoration="none" transform="matrix(1 0 0 1 2051.62 1760)">Smoking</text><text fill="#000000" fill-opacity="1" font-family="Aptos,Aptos_MSFontService,sans-serif" font-style="normal" font-variant="normal" font-weight="400" font-stretch="normal" font-size="50" text-anchor="start" direction="ltr" writing-mode="lr-tb" unicode-bidi="normal" text-decoration="none" transform="matrix(1 0 0 1 1670.81 1728)">Hypertension</text><path d="M1775.5 1547.5C1775.5 1511.6 1804.6 1482.5 1840.5 1482.5 1876.4 1482.5 1905.5 1511.6 1905.5 1547.5 1905.5 1583.4 1876.4 1612.5 1840.5 1612.5 1804.6 1612.5 1775.5 1583.4 1775.5 1547.5Z" stroke="#106841" stroke-width="3.4375" stroke-linecap="butt" stroke-linejoin="miter" stroke-miterlimit="8" stroke-opacity="1" fill="#A0BCB5" fill-rule="evenodd" fill-opacity="1"/><path d="M1645.5 1443.5C1645.5 1407.6 1674.6 1378.5 1710.5 1378.5 1746.4 1378.5 1775.5 1407.6 1775.5 1443.5 1775.5 1479.4 1746.4 1508.5 1710.5 1508.5 1674.6 1508.5 1645.5 1479.4 1645.5 1443.5Z" stroke="#106841" stroke-width="3.4375" stroke-linecap="butt" stroke-linejoin="miter" stroke-miterlimit="8" stroke-opacity="1" fill="#A0BCB5" fill-rule="evenodd" fill-opacity="1"/><text fill="#000000" fill-opacity="1" font-family="Aptos,Aptos_MSFontService,sans-serif" font-style="normal" font-variant="normal" font-weight="400" font-stretch="normal" font-size="50" text-anchor="start" direction="ltr" writing-mode="lr-tb" unicode-bidi="normal" text-decoration="none" transform="matrix(1 0 0 1 1603.79 1609)">Obesity</text><text fill="#000000" fill-opacity="1" font-family="Aptos,Aptos_MSFontService,sans-serif" font-style="normal" font-variant="normal" font-weight="400" font-stretch="normal" font-size="50" text-anchor="start" direction="ltr" writing-mode="lr-tb" unicode-bidi="normal" text-decoration="none" transform="matrix(1 0 0 1 1249.08 1425)">Excessive alcohol </text><text fill="#000000" fill-opacity="1" font-family="Aptos,Aptos_MSFontService,sans-serif" font-style="normal" font-variant="normal" font-weight="400" font-stretch="normal" font-size="50" text-anchor="start" direction="ltr" writing-mode="lr-tb" unicode-bidi="normal" text-decoration="none" transform="matrix(1 0 0 1 1346.48 1485)">consumption</text><text fill="#000000" fill-opacity="1" font-family="Aptos,Aptos_MSFontService,sans-serif" font-style="normal" font-variant="normal" font-weight="400" font-stretch="normal" font-size="50" text-anchor="start" direction="ltr" writing-mode="lr-tb" unicode-bidi="normal" text-decoration="none" transform="matrix(1 0 0 1 1196.93 1037)">Social isolation</text><text fill="#000000" fill-opacity="1" font-family="Aptos,Aptos_MSFontService,sans-serif" font-style="normal" font-variant="normal" font-weight="400" font-stretch="normal" font-size="50" text-anchor="start" direction="ltr" writing-mode="lr-tb" unicode-bidi="normal" text-decoration="none" transform="matrix(1 0 0 1 1310.34 894)">Air pollution</text><text fill="#000000" fill-opacity="1" font-family="Aptos,Aptos_MSFontService,sans-serif" font-style="normal" font-variant="normal" font-weight="400" font-stretch="normal" font-size="50" text-anchor="start" direction="ltr" writing-mode="lr-tb" unicode-bidi="normal" text-decoration="none" transform="matrix(1 0 0 1 1436.93 766)">Visual loss</text><path d="M2552.01 1019.61C2594.35 1273.91 2431.62 1506.36 2188.55 1538.8 2056.09 1556.49 1920.28 1510.81 1818.81 1414.45L1833.99 1397.04C2010.6 1565.47 2278.18 1559.34 2431.67 1383.34 2515.51 1287.2 2551.31 1154.67 2529.12 1022.67Z" stroke="#A0BCB5" stroke-width="3.4375" stroke-linecap="butt" stroke-linejoin="miter" stroke-miterlimit="8" stroke-opacity="1" fill="#A0BCB5" fill-rule="evenodd" fill-opacity="0.501961"/><text fill="#000000" fill-opacity="1" font-family="Aptos,Aptos_MSFontService,sans-serif" font-style="normal" font-variant="normal" font-weight="400" font-stretch="normal" font-size="50" text-anchor="start" direction="ltr" writing-mode="lr-tb" unicode-bidi="normal" text-decoration="none" transform="matrix(0.868956 -0.494889 0.494889 0.868956 2245.12 1481)">Mid life</text><path d="M1686.16 1108.79C1689.31 973.196 1753.23 849.729 1860.42 772.221L1877.16 794.471C1776.32 867.188 1716.42 983.396 1713.95 1111.08Z" stroke="#A0BCB5" stroke-width="3.4375" stroke-linecap="butt" stroke-linejoin="miter" stroke-miterlimit="8" stroke-opacity="1" fill="#456658" fill-rule="evenodd" fill-opacity="0.501961"/><text fill="#000000" fill-opacity="1" font-family="Aptos,Aptos_MSFontService,sans-serif" font-style="normal" font-variant="normal" font-weight="400" font-stretch="normal" font-size="50" text-anchor="start" direction="ltr" writing-mode="lr-tb" unicode-bidi="normal" text-decoration="none" transform="matrix(0.416789 -0.909003 0.909003 0.416789 1793.57 1039)">Late life</text><path d="M2236.51 687.274C2298.4 700.919 2355.95 727.283 2405.46 764.668L2388.92 785.101C2342.17 749.961 2287.8 725.26 2229.34 712.592Z" stroke="#A0BCB5" stroke-width="3.4375" stroke-linecap="butt" stroke-linejoin="miter" stroke-miterlimit="8" stroke-opacity="1" fill="#C0D7B5" fill-rule="evenodd" fill-opacity="0.501961"/><text fill="#000000" fill-opacity="1" font-family="Aptos,Aptos_MSFontService,sans-serif" font-style="normal" font-variant="normal" font-weight="400" font-stretch="normal" font-size="50" text-anchor="start" direction="ltr" writing-mode="lr-tb" unicode-bidi="normal" text-decoration="none" transform="matrix(0.909023 0.416745 -0.416745 0.909023 2205.7 756)">Early life</text><g><g><g><path d="M2417.56 630.211 2363.51 610.874 2309.45 630.211 2320.11 633.954 2320.11 655.499C2320.11 656.183 2320.67 656.738 2321.35 656.738 2322.04 656.738 2322.59 656.183 2322.59 655.499L2322.59 634.823 2331.32 637.884 2331.32 655.734C2331.32 662.998 2346.06 669.134 2363.51 669.134 2380.96 669.134 2395.7 662.998 2395.7 655.737L2395.7 637.884ZM2363.51 613.508 2410.11 630.179C2410.13 630.185 2410.13 630.195 2410.11 630.201L2363.51 646.552 2316.91 630.201C2316.89 630.195 2316.89 630.185 2316.91 630.179ZM2393.22 655.737C2393.22 660.786 2380.24 666.655 2363.51 666.655 2346.77 666.655 2333.8 660.786 2333.8 655.737L2333.8 638.755 2363.51 649.177 2393.22 638.752Z" fill="#000000" fill-rule="nonzero" fill-opacity="1"/></g></g></g><g><g><g><path d="M2615.12 974.87C2615.06 975.493 2615.52 976.05 2616.14 976.113 2616.74 976.174 2617.29 975.751 2617.38 975.151 2619.16 960.839 2632.21 950.685 2646.52 952.471 2659.61 954.103 2669.42 965.232 2669.4 978.417 2669.4 986.891 2663.39 993.601 2656.11 1000.87L2655.78 1001.21 2655.78 1009.66C2655.77 1017.49 2649.43 1023.82 2641.61 1023.83L2640.76 1023.83C2638.09 1023.84 2635.44 1023.3 2632.99 1022.24L2628.98 1020.52C2628.4 1020.27 2627.73 1020.53 2627.48 1021.1 2627.22 1021.67 2627.48 1022.34 2628.05 1022.6 2628.06 1022.6 2628.07 1022.61 2628.08 1022.61L2632.09 1024.33C2634.83 1025.51 2637.78 1026.11 2640.76 1026.1L2641.61 1026.1C2650.68 1026.09 2658.04 1018.74 2658.05 1009.66L2658.05 1002.15C2665.54 994.637 2671.68 987.627 2671.68 978.417 2671.69 962.74 2658.99 950.019 2643.32 950.004 2628.99 949.991 2616.9 960.654 2615.12 974.87Z" fill="#000000" fill-rule="nonzero" fill-opacity="1"/><path d="M2649.91 964.54C2654.73 966.818 2658.04 971.421 2658.66 976.719 2658.75 977.34 2659.33 977.769 2659.95 977.678 2660.55 977.59 2660.97 977.049 2660.92 976.448 2659.75 966.689 2650.89 959.726 2641.13 960.896 2631.37 962.065 2624.41 970.924 2625.58 980.683 2626 984.217 2627.47 987.543 2629.81 990.231 2630.22 990.704 2630.93 990.755 2631.41 990.344 2631.88 989.933 2631.93 989.216 2631.52 988.742 2630 986.986 2628.89 984.909 2628.28 982.666 2630.93 975.912 2638.56 972.591 2645.32 975.248 2651.45 977.659 2654.84 984.234 2653.26 990.628 2652.24 994.735 2648.42 997.312 2643.9 1000.02L2643.5 1000.27 2642.37 1004.78C2641.36 1008.43 2637.65 1010.64 2633.96 1009.78 2632.34 1009.59 2630.9 1008.65 2630.08 1007.24 2629.32 1005.7 2629.25 1003.91 2629.89 1002.32 2630.14 1001.75 2629.87 1001.08 2629.3 1000.83 2628.72 1000.58 2628.05 1000.84 2627.8 1001.42 2627.8 1001.43 2627.8 1001.44 2627.79 1001.45 2626.89 1003.67 2627 1006.18 2628.08 1008.32 2629.22 1010.34 2631.24 1011.71 2633.54 1012.01 2634.18 1012.13 2634.83 1012.19 2635.49 1012.19 2639.74 1012.29 2643.5 1009.45 2644.58 1005.33L2645.48 1001.73C2650.25 998.838 2654.27 995.995 2655.47 991.179 2656.84 985.69 2655.1 979.891 2650.95 976.054 2650.37 975.507 2649.74 975.017 2649.08 974.589 2642 969.919 2632.49 971.816 2627.74 978.841 2627.74 978.846 2627.73 978.847 2627.72 978.844 2627.72 978.842 2627.72 978.839 2627.72 978.836 2627.58 970.257 2634.42 963.188 2643 963.045 2645.38 963.006 2647.75 963.517 2649.91 964.54Z" fill="#000000" fill-rule="nonzero" fill-opacity="1"/></g></g></g><g><g><g><path d="M44.186 50.8316C44.2191 42.5264 50.9786 35.8205 59.2839 35.8537 62.8625 35.868 66.3188 37.1581 69.0315 39.492 69.4081 41.9135 68.126 44.6709 69.0788 47.085 70.598 50.9357 74.5506 52.4861 76.0871 54.736 76.9872 56.089 77.7976 57.4997 78.5129 58.959 78.599 59.1434 78.7847 59.2608 78.9882 59.2594 79.2708 59.2601 79.5055 59.0414 79.5247 58.7594 79.6321 57.3815 79.8838 56.0186 80.2757 54.6931 81.1819 51.6321 80.9086 48.3429 79.5097 45.4735 77.9003 41.8642 74.1655 38.506 70.6195 38.0382 63.5629 31.7553 52.7491 32.3826 46.4662 39.4392 45.7512 40.2423 45.1134 41.1109 44.5615 42.0337 45.6248 32.1725 49.3671 20.2953 61.8859 16.4393L61.8859 16.4393C61.8001 17.8458 60.6488 19.4241 61.0662 20.8092 61.7582 23.1096 64.5199 24.028 65.4104 25.3734 65.8612 26.0751 66.2558 26.8113 66.5907 27.5751 66.7003 27.8471 67.0098 27.9787 67.2818 27.869 67.4337 27.8078 67.5488 27.6799 67.5938 27.5225 67.8332 26.7658 68.1496 26.0355 68.538 25.3434 69.5465 23.6808 69.7235 21.6433 69.0165 19.8318 68.2115 17.9039 66.6216 16.4116 64.6465 15.7301 64.6272 15.7225 64.6283 15.714 64.6465 15.7097 78.9732 12.5102 85.0824 21.4154 86.7379 24.5173 86.3742 27.0762 83.9269 29.2585 83.9269 31.9955 83.9269 36.1348 87.0308 39.0263 87.6392 41.685 87.9806 43.2738 88.2164 44.8835 88.3451 46.5035 88.3717 46.7985 88.6325 47.0162 88.9276 46.9896 89.1152 46.9727 89.2802 46.8586 89.3623 46.6891 89.9683 45.4469 90.7018 44.2711 91.551 43.1807 93.5178 40.6664 94.4706 37.5061 94.2215 34.3237 94.0541 30.5342 91.9823 26.2425 89.0522 24.3681 87.9138 21.9755 80.4517 8.32477 61.0726 14.4447 52.456 17.1667 47.7073 23.2716 45.1044 30.0288 42.7257 22.6579 35.8803 17.6498 28.1351 17.6141 26.6016 17.6156 25.0752 17.8228 23.5967 18.2299 23.322 18.3008 23.1042 18.3608 22.9218 18.4263L22.6257 18.5336C19.817 19.5946 17.4303 21.5414 15.8266 24.0795 14.0236 26.7545 13.2977 30.0119 13.7945 33.1993 14.0065 34.5649 14.0748 35.9491 13.9984 37.329 13.9788 37.6246 14.2026 37.8801 14.4982 37.8996 14.5105 37.9005 14.5226 37.9008 14.5348 37.9008 14.7122 37.9007 14.8775 37.8106 14.9736 37.6616 15.8751 36.3103 16.8647 35.02 17.936 33.7991 19.7599 31.7723 23.8799 30.7584 25.8949 27.147 27.1255 24.9389 26.3026 22.13 26.8991 19.8125 27.3068 19.7796 27.7174 19.7628 28.1308 19.7621 36.4867 19.7621 43.5487 26.5215 43.6753 34.5683 41.8277 41.906 41.9715 49.2974 42.0541 53.4721 42.0627 53.9442 42.0702 54.3508 42.0745 54.7242L23.4057 54.7242C20.443 54.7242 18.0411 57.126 18.0411 60.0888L18.0411 65.4534 22.6107 65.4534 27.4839 92.2398C27.9065 94.7344 30.0663 96.5605 32.5963 96.5626L54.6877 96.5626C57.2039 96.5595 59.3545 94.7497 59.7873 92.271L64.8515 65.448 69.5487 65.448 69.5487 60.0351C69.4446 57.0832 67.0316 54.7382 64.0779 54.7188L44.2289 54.7188C44.2289 54.3336 44.2171 53.9131 44.2074 53.4249ZM24.6256 20.1966C24.6321 20.196 24.6378 20.2008 24.6385 20.2072 24.6386 20.208 24.6386 20.2087 24.6385 20.2095 24.5304 21.0731 24.4831 21.9432 24.4969 22.8135 24.5965 23.9307 24.4349 25.0557 24.0248 26.0998 22.9327 27.718 21.436 29.0222 19.6838 29.8829 18.4558 30.543 17.3313 31.3794 16.3459 32.3656 16.2064 32.5201 16.1045 32.636 15.9264 32.8431 15.9178 32.8528 15.9114 32.8431 15.9092 32.8356 15.51 30.1986 16.1129 27.5076 17.5991 25.293 19.0004 23.0816 21.0896 21.3919 23.5452 20.4841 23.6643 20.4466 23.7834 20.4123 23.9025 20.3769 24.1402 20.3044 24.3816 20.2442 24.6256 20.1966ZM57.6715 91.8997C57.4215 93.3528 56.1621 94.4152 54.6877 94.4168L32.5963 94.4168C31.1124 94.4141 29.8478 93.3391 29.6061 91.875L24.7984 65.448 62.6724 65.448ZM67.4029 60.0834 67.4029 63.3022 20.1945 63.3022 20.1945 60.0834C20.1945 58.3057 21.6355 56.8647 23.4132 56.8647L64.0768 56.8647C65.8571 56.9015 67.3077 58.3053 67.4029 60.0834ZM77.5505 46.3501C78.731 48.7419 78.973 51.4891 78.2286 54.0504 78.2286 54.0622 78.2179 54.0665 78.2104 54.0558 78.0677 53.8412 77.9754 53.6974 77.8574 53.5257 77.0106 52.4186 76.0069 51.4408 74.8779 50.6235 73.2543 49.539 71.943 48.0483 71.0744 46.2996 70.8071 45.2105 70.7957 44.0743 71.0411 42.98 71.1706 42.1187 71.2391 41.2492 71.246 40.3782 71.2457 40.3723 71.2503 40.3673 71.2562 40.3669 71.2575 40.3669 71.2588 40.367 71.26 40.3675 74.0618 41.4571 76.3218 43.6064 77.5505 46.3501ZM66.9994 20.5689C67.4245 21.6058 67.3953 22.7733 66.919 23.7877 66.9159 23.7927 66.9092 23.7942 66.9042 23.7911 66.9028 23.7902 66.9016 23.7891 66.9007 23.7877 66.3549 23.1826 65.7374 22.6466 65.0618 22.1912 64.2184 21.5699 63.3451 20.9283 63.1305 20.2041 63.1844 19.7564 63.3003 19.3184 63.4749 18.9027 63.6004 18.5432 63.7388 18.1463 63.8493 17.7225 63.85 17.7172 63.8547 17.7133 63.8601 17.714 63.8612 17.7141 63.8622 17.7144 63.8633 17.715 65.2636 18.1827 66.402 19.2188 66.9994 20.5689ZM89.8837 41.8299C89.8751 41.8406 89.8676 41.8406 89.8644 41.8299 89.8118 41.5766 89.7764 41.4114 89.7303 41.2086 89.3493 39.8676 88.7742 38.5894 88.0233 37.4148 86.9115 35.8102 86.239 33.9426 86.0727 31.9976 86.2231 30.8862 86.6292 29.8248 87.2594 28.8969 87.6968 28.1422 88.0808 27.3578 88.4084 26.5494 88.4113 26.545 88.4174 26.5437 88.4219 26.5467 88.4229 26.5473 88.4238 26.5483 88.4245 26.5494 90.6309 28.591 91.9446 31.4194 92.081 34.4224 92.2998 37.0794 91.5159 39.722 89.8837 41.8299Z" fill="#000000" fill-rule="nonzero" fill-opacity="1" transform="matrix(1 0 0 1.00971 2585 1231)"/></g></g></g><g><g><g><path d="M84.6093 40.7708C84.9985 39.6232 85.199 38.42 85.203 37.2083 85.1733 31.608 81.1989 26.8056 75.703 25.7291 74.0604 20.9072 69.5158 17.678 64.4218 17.7135 63.4903 17.7144 62.5615 17.8139 61.651 18.0104 59.5406 15.563 56.558 14.0361 53.3385 13.7552 53.0858 13.7399 52.8339 13.7323 52.5827 13.7322 49.6063 13.7162 46.7324 14.8194 44.5312 16.8229 42.5019 15.4468 40.1073 14.7089 37.6554 14.7043 32.6553 14.705 28.1967 17.8517 26.5208 22.5625L25.8281 22.5625C19.3307 22.5234 14.0233 27.7424 13.9531 34.2395L13.9531 34.8333C10.0002 37.0225 7.68192 41.3113 8.01561 45.8176 8.41145 52.052 13.9531 56.703 20.2864 56.703L35.625 56.703C42.1612 56.7028 47.4902 61.9437 47.5989 68.4791L47.5989 81.1457 49.5781 81.1298 49.5781 68.4491C49.4259 60.8441 43.2315 54.7508 35.625 54.7239L20.2864 54.7239C14.8347 54.7239 10.3124 50.7566 9.99062 45.689 9.69829 41.9474 11.6208 38.3804 14.9069 36.5675L15.9323 36.0035 15.9323 34.8333 15.9323 34.2692C15.9788 28.8504 20.4092 24.4952 25.8281 24.5416L27.9104 24.5416 28.3823 23.2346C29.775 19.3081 33.4892 16.6842 37.6554 16.6836 39.7122 16.6842 41.7213 17.3036 43.4212 18.4615L44.7158 19.3385 45.8685 18.282C47.7051 16.6135 50.1014 15.6961 52.5827 15.7114 52.7834 15.7114 52.9846 15.7172 53.1864 15.7288 55.8763 15.9671 58.3681 17.2418 60.1355 19.2834L60.9079 20.2029 62.0802 19.9424C62.8499 19.7778 63.6347 19.6942 64.4218 19.6927 68.674 19.653 72.4705 22.3497 73.8332 26.3779L74.2044 27.4479 75.3149 27.67C79.8819 28.5676 83.1873 32.554 83.2238 37.2083 83.2189 38.2072 83.0526 39.1987 82.7317 40.1447L82.3911 41.1666 83.064 42.0078C85.6814 45.306 85.8481 49.9236 83.4756 53.4022L83.1397 53.8888 83.1257 54.4799 83.1231 54.6443C83.1277 54.9041 83.1085 55.1637 83.0656 55.4201 81.7282 62.0178 75.2634 65.0339 73.646 65.4697L73.5674 65.4869C70.6254 66.1126 65.8039 68.7429 65.2629 79.1666L65.1786 81.1457 67.1926 81.1457C67.1926 68.2812 73.328 67.5884 74.1197 67.3905 76.6926 66.6978 83.5207 63.1353 85.0051 55.8124 85.0789 55.3877 85.1121 54.9569 85.104 54.526 87.9749 50.3289 87.7743 44.7507 84.6093 40.7708Z" fill="#000000" fill-rule="nonzero" fill-opacity="1" transform="matrix(1 0 0 1 2509 1373)"/><path d="M72.1525 45.2176C73.5088 44.3559 74.7307 43.2989 75.7784 42.0806 77.5246 39.7429 78.0258 35.6909 78.0465 35.5197 78.1117 34.977 77.7244 34.4844 77.1818 34.4192 76.6391 34.3542 76.1464 34.7414 76.0813 35.284 76.0765 35.3211 75.6204 38.9851 74.1925 40.8962 73.595 41.6188 72.9059 42.2606 72.1427 42.8055 71.9131 39.6053 70.449 36.6198 68.0594 34.479 66.7669 33.4403 65.3596 32.5531 63.8651 31.8348 64.1077 30.9558 64.5197 30.1326 65.0781 29.4116 65.8999 28.5371 66.9385 27.8955 68.0884 27.552 68.6179 27.4169 68.9376 26.8779 68.8024 26.3484 68.6672 25.8189 68.1283 25.4992 67.5987 25.6344 67.5935 25.6357 67.5882 25.6371 67.5829 25.6386 66.0408 26.0861 64.6516 26.9491 63.5671 28.1331 62.8691 29.0122 62.3454 30.0165 62.0241 31.092 61.358 30.861 60.6842 30.6434 60.0204 30.4388 58.1161 29.9644 56.2972 29.1966 54.629 28.1628 53.268 27.1451 52.4319 25.5735 52.3483 23.8761 52.3681 23.1816 52.3734 22.5217 52.3734 22.5217 52.3783 21.9752 51.9392 21.5282 51.3927 21.5233 50.8461 21.5185 50.3991 21.9575 50.3943 22.5041 50.3943 22.5041 50.3884 23.1457 50.3701 23.8218 50.4382 26.1794 51.5858 28.375 53.4828 29.7765 53.9095 30.0769 54.3558 30.3482 54.8188 30.5888 53.4396 30.9524 51.749 31.3837 50.5579 31.6388 46.7027 32.4926 42.6972 32.3904 38.8906 31.341 36.1964 30.3787 33.9369 28.4819 32.5225 25.9951 32.2675 25.5117 31.6689 25.3266 31.1855 25.5816 30.7104 25.8322 30.522 26.4162 30.7611 26.8972 32.4071 29.8642 35.0907 32.119 38.2968 33.2293 38.3976 33.2609 38.4984 33.2788 38.5991 33.309 37.4678 34.4274 36.2184 35.4196 34.8729 36.2682 31.6637 37.8742 28.027 38.4182 24.4883 37.8218 23.0403 37.4744 21.6914 36.7992 20.5454 35.8484 20.1341 35.4885 19.5089 35.5302 19.149 35.9415 18.7916 36.35 18.83 36.9702 19.235 37.3316 20.6416 38.515 22.3088 39.3481 24.0998 39.7623 25.0966 39.9539 26.1095 40.0491 27.1246 40.0467 25.9767 40.7495 24.9245 41.5977 23.994 42.5701 22.0394 44.7479 20.8882 47.5286 20.7317 50.4508 20.7358 50.9942 21.1778 51.4324 21.7213 51.4316L21.7242 51.4316C22.2697 51.4293 22.7106 50.9866 22.7109 50.4412 22.8831 48.0043 23.8587 45.6934 25.4849 43.8703 27.2419 41.8564 32.1745 39.4544 32.3974 39.3465 33.592 39.0357 34.7452 38.5837 35.8328 37.9999 37.67 36.8109 39.3654 35.4158 40.886 33.8418L40.8901 33.8353C42.2607 34.0726 43.6491 34.1931 45.04 34.1955 46.8051 34.1926 48.5663 34.0292 50.3018 33.7072 49.1577 35.4997 48.4991 37.5586 48.3906 39.6822 48.4016 41.2494 48.6517 42.8057 49.132 44.2975 47.8149 44.0991 46.5097 43.8287 45.2222 43.4874 44.231 43.1523 43.2805 42.7074 42.3883 42.1607 41.9265 41.8683 41.3151 42.0057 41.0227 42.4675 40.7303 42.9294 40.8677 43.5407 41.3295 43.8331 42.3674 44.4728 43.4754 44.9907 44.6317 45.3769 46.4011 45.8301 48.1942 46.1849 50.0029 46.4394 50.2276 46.8963 50.4864 47.3356 50.7769 47.7537 51.3867 48.6174 52.0819 49.4175 52.8518 50.1421 53.2589 50.507 53.8847 50.4726 54.2496 50.0654 54.6143 49.6582 54.58 49.0325 54.1729 48.6676 53.5119 48.0391 52.9139 47.3473 52.3875 46.6025 51.0764 44.5319 50.3769 42.133 50.3697 39.6822 50.3697 36.4622 53.0934 33.1159 53.1345 33.0659 55.2977 32.5271 57.604 31.8895 57.7346 31.8533 57.7629 31.8453 57.783 31.8251 57.81 31.8151 58.3531 31.9954 58.8985 32.1642 59.4388 32.3304 60.4124 32.6298 61.3319 32.9127 62.2046 33.2555 63.8296 33.9518 65.3554 34.8598 66.7423 35.9561 68.9106 37.8919 70.1688 40.6476 70.2111 43.5541 70.2286 44.6878 70.1388 45.8208 69.9429 46.9377 68.5061 46.4498 67.0349 46.0699 65.5415 45.8011 64.1998 45.7008 62.8527 45.6987 61.5107 45.7949 60.9654 45.8314 60.5529 46.3031 60.5895 46.8485 60.626 47.3938 61.0978 47.8063 61.6431 47.7697 62.8542 47.6799 64.0703 47.6779 65.2816 47.7635 66.7046 48.0296 68.1063 48.3986 69.4759 48.8675 68.9464 50.4819 68.1069 51.9775 67.0046 53.2705 66.0221 54.2695 64.9278 55.1518 63.743 55.9 60.9821 57.8326 57.8528 60.0226 56.8865 63.5674 56.5883 65.2222 56.4162 66.8972 56.3719 68.578 56.3719 69.2707 56.3605 78.8035 56.3577 81.1457L58.3368 81.1457C58.3396 78.7986 58.3511 69.27 58.3511 68.578 58.3954 67.0729 58.5442 65.5727 58.7964 64.0882 59.5749 61.2337 62.3923 59.2616 64.8784 57.5214 66.1288 56.7159 67.2899 55.7795 68.3419 54.728 69.0885 55.6189 69.9006 56.4524 70.7717 57.2218 71.8826 58.1304 73.4733 59.2092 73.5405 59.2546 73.9939 59.5597 74.6088 59.4394 74.9139 58.986 75.2179 58.5343 75.0999 57.9219 74.6498 57.6155 74.6344 57.6049 73.0655 56.541 72.0251 55.69 71.1473 54.8959 70.3289 54.0384 69.5765 53.1245 71.1384 50.7733 72.0276 48.0398 72.1482 45.2197Z" fill="#000000" fill-rule="nonzero" fill-opacity="1" transform="matrix(1 0 0 1 2509 1373)"/></g></g></g><g><g><g><path d="M66.5137 14.55C61.8375 9.77577 46.7156 6.87083 43.9056 9.34635 42.0869 10.9519 40.5712 15.9141 40.8541 19.3646 41.0401 21.6269 41.9363 22.6374 42.6557 23.086 47.431 26.0687 53.3702 28.8979 59.0083 26.5598 60.3562 28.0593 61.9749 32.2596 61.1009 35.4787 60.824 36.5013 60.4825 37.4844 60.1228 38.5251 59.0969 41.1342 58.462 43.8806 58.2384 46.6752 58.1063 48.7065 58.346 50.7449 58.9457 52.6902 56.133 51.2365 53.0078 50.4918 49.8418 50.5208 44.8231 50.5208 41.7787 53.2176 39.9609 54.8292 39.5012 55.2334 38.9293 55.7386 38.8091 55.8022 38.1866 55.6647 37.6008 55.3954 37.0914 55.0121 34.5126 53.3233 31.4838 52.453 28.4018 52.5154 20.2033 52.5154 15.4856 60.5633 15.2886 60.9018 15.0096 61.3856 15.1756 62.0041 15.6594 62.2831 16.1432 62.562 16.7617 62.396 17.0407 61.9122 17.0831 61.8395 21.3855 54.5362 28.4018 54.5362 31.1181 54.4749 33.7882 55.2459 36.0537 56.746 36.8567 57.3481 37.8086 57.7204 38.807 57.8231 39.6275 57.8231 40.3287 57.2017 41.2987 56.3418 43.0063 54.8262 45.5869 52.5416 49.8398 52.5416 52.8143 52.5168 55.7472 53.2428 58.3667 54.6524 58.9135 54.9328 59.4758 55.1818 60.051 55.3981 60.6966 56.6839 61.4539 57.9107 62.3144 59.0639 62.636 59.5199 63.2664 59.6289 63.7224 59.3073 64.1785 58.9857 64.2874 58.3553 63.9659 57.8993 63.9566 57.8861 63.947 57.8732 63.9371 57.8605 63.0584 56.6902 62.2995 55.4348 61.6718 54.1128 61.6566 54.0825 61.6475 54.0512 61.6293 54.0219 60.5567 51.7706 60.0844 49.2801 60.2582 46.7924 60.478 44.184 61.0781 41.6217 62.0395 39.187 62.3962 38.1594 62.764 37.0974 63.0601 36.0082 64.0422 32.3879 62.565 27.8764 60.8371 25.609 61.4108 25.2513 61.9572 24.8518 62.472 24.4137 62.9168 24.0767 63.0042 23.443 62.6672 22.9981 62.3302 22.5533 61.6965 22.4659 61.2516 22.8029 61.219 22.8276 61.1879 22.8544 61.1585 22.8829 56.7399 26.6891 51.5292 26.2375 43.7348 21.3723 43.1455 20.8067 42.8294 20.0139 42.8679 19.1979 42.6214 16.198 43.9955 11.9593 45.2414 10.862 46.8964 9.40697 60.7796 11.5844 65.0708 15.9676 68.9508 19.9305 73.8937 29.7285 78.9893 43.558 83.4169 55.5729 82.7531 65.1648 81.7255 66.3065 80.9171 67.1967 78.0243 68.9195 75.2234 70.5856 73.4279 71.6547 71.5708 72.759 70.0016 73.7917 69.1509 74.3505 68.1899 75.0446 67.1725 75.7802 63.1793 78.6619 57.7089 82.6096 51.7767 83.6038 49.7495 83.7757 47.7083 83.6824 45.7052 83.326 44.1235 83.0427 42.5134 82.9507 40.9097 83.0522 39.6272 83.3514 38.3929 83.829 37.2429 84.4708 35.015 85.5519 32.2424 86.8958 29.2515 86.8958 22.5484 86.8958 16.9427 81.289 16.8871 81.2324 16.4804 80.8503 15.8409 80.8703 15.4589 81.277 15.0983 81.6606 15.0929 82.2568 15.4462 82.647 15.6968 82.9026 21.6886 88.9116 29.2515 88.9116 32.7062 88.9116 35.7101 87.4566 38.124 86.2845 39.0938 85.7442 40.1274 85.3273 41.2007 85.0437 42.6213 84.981 44.0444 85.0749 45.4445 85.3236 47.6423 85.7139 49.8831 85.8036 52.1051 85.5903 58.5051 84.5173 64.1958 80.4099 68.3516 77.411 69.3509 76.6896 70.2946 76.0075 71.109 75.473 72.6408 74.4626 74.4778 73.3734 76.2541 72.3165 79.451 70.4139 82.2155 68.7709 83.2259 67.6534 85.1953 65.474 85.2629 54.7282 80.8868 42.8517 77.8788 34.6987 72.0134 20.1689 66.5137 14.55Z" fill="#000000" fill-rule="nonzero" fill-opacity="1" transform="matrix(1 0 0 1.01031 2399 1496)"/></g></g></g><g><g><g><path d="M2184.74 1632.82C2184.71 1632.6 2184.67 1632.38 2184.62 1632.17 2183.35 1625.32 2177.37 1620.37 2170.41 1620.39 2169.29 1620.41 2168.37 1619.53 2168.34 1618.42 2168.34 1618.38 2168.34 1618.35 2168.34 1618.32L2168.34 1617.29C2168.33 1611.69 2164.24 1606.93 2158.7 1606.09 2158.52 1606.06 2158.34 1606.03 2158.16 1606.01 2157.76 1605.96 2157.36 1605.94 2156.95 1605.94 2155.84 1605.95 2154.94 1605.04 2154.94 1603.93 2154.94 1603.92 2154.94 1603.9 2154.94 1603.88 2155.07 1596.62 2149.31 1590.63 2142.05 1590.48 2134.79 1590.63 2129.03 1596.62 2129.16 1603.88 2129.13 1608.61 2131.58 1613 2135.62 1615.46 2134.54 1621.56 2138.61 1627.39 2144.71 1628.47 2145.23 1628.56 2145.75 1628.62 2146.27 1628.64 2148.39 1628.63 2150.45 1628.01 2152.21 1626.83 2154.55 1629.32 2157.82 1630.72 2161.23 1630.7L2171.54 1630.7C2173.79 1630.67 2175.64 1632.48 2175.67 1634.73 2175.67 1634.76 2175.67 1634.79 2175.67 1634.82L2175.67 1642.56 2177.73 1642.56 2177.73 1634.82C2177.76 1631.44 2175.05 1628.67 2171.67 1628.64 2171.63 1628.64 2171.58 1628.64 2171.54 1628.64L2161.23 1628.64C2158.33 1628.65 2155.56 1627.43 2153.61 1625.29 2153.92 1624.9 2154.21 1624.49 2154.47 1624.07 2154.77 1623.58 2154.61 1622.94 2154.12 1622.65 2153.63 1622.36 2152.99 1622.52 2152.7 1623.01 2152.12 1623.98 2151.35 1624.83 2150.44 1625.5 2149.16 1626.2 2147.73 1626.57 2146.27 1626.57 2141.37 1626.51 2137.44 1622.48 2137.51 1617.58 2137.51 1617.52 2137.51 1617.46 2137.51 1617.4 2137.51 1616.65 2137.6 1615.9 2137.79 1615.17L2137.99 1614.37 2137.25 1614C2133.5 1612.03 2131.17 1608.12 2131.22 1603.89 2131.09 1597.77 2135.93 1592.69 2142.05 1592.54 2148.17 1592.69 2153.01 1597.77 2152.88 1603.89 2152.87 1604.82 2153.19 1605.72 2153.77 1606.45 2153.33 1606.59 2152.91 1606.76 2152.49 1606.95 2151.98 1607.2 2151.76 1607.81 2152 1608.33 2152.25 1608.84 2152.86 1609.06 2153.38 1608.82 2154.53 1608.27 2155.8 1607.99 2157.07 1608.02 2157.25 1608.02 2157.42 1608.03 2157.6 1608.04 2157.95 1608.06 2158.3 1608.11 2158.65 1608.18 2158.66 1608.18 2158.67 1608.18 2158.67 1608.18 2163.07 1608.99 2166.27 1612.82 2166.28 1617.29L2166.28 1618.32C2166.26 1620.58 2168.06 1622.42 2170.32 1622.45 2170.35 1622.45 2170.38 1622.45 2170.41 1622.45 2176.34 1622.43 2181.45 1626.63 2182.57 1632.46 2182.63 1632.73 2182.68 1633.01 2182.7 1633.28 2182.74 1633.62 2182.78 1634.35 2182.78 1634.82L2182.88 1642.57 2184.94 1642.54 2184.84 1634.78C2184.84 1634.28 2184.8 1633.29 2184.74 1632.82Z" fill="#000000" fill-rule="nonzero" fill-opacity="1"/><path d="M2096.16 1659.06 2184.84 1659.06 2184.84 1646.68 2096.16 1646.68ZM2177.62 1648.75 2182.78 1648.75 2182.78 1657 2177.62 1657ZM2115.75 1648.75 2175.56 1648.75 2175.56 1657 2115.75 1657ZM2098.22 1648.75 2113.69 1648.75 2113.69 1657 2098.22 1657Z" fill="#000000" fill-rule="nonzero" fill-opacity="1"/></g></g></g><g><g><g><path d="M1947.79 1610.84C1947.94 1611.44 1948.39 1613.13 1949.16 1615.27 1949.67 1614.68 1950.22 1614.13 1950.81 1613.62 1950.24 1611.91 1949.99 1610.92 1949.9 1610.53 1949.86 1610.37 1949.81 1610.21 1949.74 1610.05 1948.96 1608.06 1948.02 1606.14 1946.94 1604.31 1945.87 1602.57 1945.41 1601.91 1945.26 1601.71 1945.24 1601.68 1945.21 1601.65 1945.19 1601.62 1944.21 1600.55 1944.28 1598.89 1945.36 1597.91 1945.71 1597.59 1946.13 1597.37 1946.6 1597.27 1946.78 1597.24 1946.96 1597.22 1947.14 1597.22 1947.65 1597.22 1948.15 1597.37 1948.57 1597.65 1948.99 1597.92 1949.29 1598.12 1951.09 1601.02 1951.4 1601.51 1952.04 1601.66 1952.54 1601.36 1952.81 1601.18 1953 1600.89 1953.03 1600.57 1953.07 1600.2 1953.11 1599.83 1953.16 1599.46 1953.65 1595.92 1953.87 1595.28 1954.11 1594.87 1954.82 1593.6 1956.42 1593.14 1957.69 1593.85 1958.81 1594.47 1959.32 1595.81 1958.9 1597.02 1958.88 1597.06 1958.82 1597.35 1958.78 1597.57 1958.69 1598.02 1958.56 1598.83 1958.37 1600.18 1958.11 1602.31 1958.02 1604.45 1958.1 1606.59 1958.11 1606.71 1958.11 1606.87 1958.11 1607.06 1958.1 1607.69 1958.14 1608.32 1958.24 1608.94 1958.31 1609.25 1958.43 1609.75 1958.63 1610.42L1958.64 1610.42C1959.44 1610.3 1960.14 1610.22 1960.75 1610.17 1960.51 1609.4 1960.37 1608.83 1960.3 1608.51 1960.24 1608.02 1960.21 1607.53 1960.22 1607.04 1960.22 1606.81 1960.22 1606.62 1960.2 1606.48 1960.12 1604.47 1960.21 1602.46 1960.46 1600.47 1960.71 1598.65 1960.86 1597.89 1960.91 1597.64 1961.72 1595.15 1960.35 1592.47 1957.85 1591.66 1957.72 1591.61 1957.58 1591.57 1957.44 1591.54 1955.49 1591.1 1953.48 1591.94 1952.42 1593.63 1951.97 1594.32 1951.72 1594.94 1951.33 1597.49 1951.33 1597.51 1951.32 1597.51 1951.31 1597.49 1950.94 1596.91 1950.46 1596.41 1949.91 1596 1949.21 1595.5 1948.39 1595.19 1947.53 1595.12 1944.92 1594.9 1942.63 1596.85 1942.42 1599.46 1942.32 1600.75 1942.74 1602.02 1943.6 1602.99 1943.74 1603.19 1944.18 1603.82 1945.15 1605.41 1946.14 1607.08 1946.99 1608.82 1947.72 1610.62 1947.74 1610.7 1947.78 1610.83 1947.79 1610.84Z" fill="#000000" fill-rule="nonzero" fill-opacity="1"/><path d="M2006.16 1627.35C2003.61 1619.12 1999.16 1612.56 1996.95 1610.35 1996.25 1609.68 1995.48 1609.08 1994.66 1608.56 1994.08 1608.97 1993.5 1609.43 1992.91 1609.93 1993.83 1610.47 1994.68 1611.11 1995.46 1611.83 1997.21 1613.58 2001.62 1619.81 2004.15 1627.97 2006.24 1634.83 2006.83 1642.07 2005.86 1649.18 2005.28 1653.7 2002.42 1660.28 1999.47 1662.3 1996.34 1664.44 1986.95 1665.31 1980.51 1664.05 1973.7 1662.49 1967.26 1659.58 1961.59 1655.49 1960 1654.32 1958.48 1653.06 1957.02 1651.73 1954.86 1649.41 1952.86 1646.94 1951.02 1644.35 1948.36 1640.61 1947.04 1636.07 1947.28 1631.47 1947.58 1624.34 1950.18 1620.51 1952.11 1618.26 1954.11 1615.93 1955.77 1615.07 1959.22 1614.58 1960.54 1614.38 1961.86 1614.27 1963.19 1614.23 1963.55 1614.31 1963.92 1614.23 1964.23 1614.03L1964.7 1613.63 1964.71 1613.1C1964.72 1612.45 1964.72 1611.82 1964.73 1611.19 1964.61 1608.03 1964.93 1604.87 1965.67 1601.79 1966.5 1598.65 1968.11 1595.76 1970.34 1593.39L1970.76 1592.95 1970.59 1592.37C1970.39 1591.66 1970.22 1590.96 1970.07 1590.29 1969.29 1586.6 1969.36 1586.27 1969.44 1585.96 1969.64 1585.11 1970.49 1584.58 1971.34 1584.78 1972.05 1584.94 1972.56 1585.58 1972.56 1586.32L1972.57 1586.43C1972.59 1586.68 1972.71 1587.46 1973.14 1589.53L1973.42 1590.82 1974.62 1590.26C1974.7 1590.22 1974.78 1590.19 1974.86 1590.16L1975.7 1589.8 1975.67 1589.08C1975.66 1588.63 1975.64 1588.18 1975.65 1587.73 1975.67 1583.95 1975.82 1583.65 1975.96 1583.35 1976.34 1582.57 1977.28 1582.24 1978.07 1582.62 1978.73 1582.93 1979.08 1583.66 1978.93 1584.38L1978.91 1584.49C1978.88 1584.73 1978.82 1585.53 1978.8 1587.75 1978.8 1587.86 1978.8 1587.95 1978.81 1588.05L1978.87 1589.17 1980.9 1589.33 1981.2 1588.15C1981.27 1587.85 1981.35 1587.55 1981.44 1587.24 1982.53 1583.62 1982.76 1583.37 1982.97 1583.13 1983.56 1582.49 1984.56 1582.44 1985.2 1583.02 1985.74 1583.51 1985.88 1584.31 1985.53 1584.95L1985.48 1585.05C1985.38 1585.28 1985.1 1586.04 1984.46 1588.15 1984.3 1588.68 1984.16 1589.22 1984.04 1589.74L1983.87 1590.45 1984.46 1590.86C1984.88 1591.15 1985.28 1591.47 1985.65 1591.83 1986.27 1591.44 1986.89 1591.07 1987.53 1590.72 1987.13 1590.31 1986.7 1589.92 1986.25 1589.56 1986.32 1589.3 1986.4 1589.03 1986.48 1588.76 1987.06 1586.83 1987.33 1586.11 1987.41 1585.91 1988.35 1584.11 1987.66 1581.88 1985.86 1580.93 1984.37 1580.15 1982.54 1580.48 1981.42 1581.72 1981.16 1582 1980.95 1582.31 1980.79 1582.65 1980 1580.77 1977.82 1579.89 1975.94 1580.69 1974.66 1581.23 1973.79 1582.44 1973.69 1583.82 1972.31 1582.33 1969.98 1582.24 1968.48 1583.62 1967.94 1584.11 1967.57 1584.76 1967.4 1585.48 1967.22 1586.22 1967.17 1586.76 1968.03 1590.74 1968.14 1591.26 1968.27 1591.82 1968.42 1592.38 1966.16 1594.92 1964.53 1597.95 1963.66 1601.24 1962.86 1604.49 1962.52 1607.83 1962.64 1611.18 1962.64 1611.5 1962.64 1611.82 1962.63 1612.15 1961.91 1612.18 1960.65 1612.26 1958.94 1612.51 1954.99 1613.07 1952.86 1614.18 1950.53 1616.9 1948.4 1619.39 1945.52 1623.6 1945.19 1631.39 1944.93 1636.46 1946.39 1641.46 1949.33 1645.59 1951.29 1648.28 1952.86 1650.2 1953.83 1651.33 1954.37 1652 1954.95 1652.64 1955.56 1653.24 1957.08 1654.64 1958.67 1655.95 1960.32 1657.17 1966.25 1661.45 1972.98 1664.49 1980.11 1666.12 1982.46 1666.55 1984.85 1666.76 1987.24 1666.75 1992.71 1666.75 1998.16 1665.74 2000.66 1664.03 2004.21 1661.6 2007.29 1654.53 2007.95 1649.45 2008.95 1642.04 2008.34 1634.5 2006.16 1627.35Z" fill="#000000" fill-rule="nonzero" fill-opacity="1"/><path d="M1986.73 1617.01C1986.64 1617.01 1986.56 1617 1986.49 1616.99 1985.92 1616.85 1985.57 1616.29 1985.7 1615.72 1985.7 1615.72 1985.7 1615.72 1985.7 1615.72 1986.25 1613.36 1987.49 1609.11 1989.64 1607.19 1992.18 1604.84 1995.18 1603.05 1998.46 1601.93 2001.21 1600.99 2002.68 1598.01 2001.74 1595.26 2000.81 1592.5 1997.82 1591.03 1995.07 1591.97 1990.46 1593.54 1986.23 1596.05 1982.65 1599.33 1978.29 1603.21 1976.21 1609.65 1975.23 1614.35 1975.11 1614.92 1974.55 1615.29 1973.99 1615.17 1973.42 1615.05 1973.05 1614.5 1973.17 1613.93 1974.21 1608.9 1976.46 1602.02 1981.25 1597.76 1985.04 1594.29 1989.52 1591.64 1994.39 1589.98 1998.24 1588.67 2002.42 1590.73 2003.73 1594.58 2005.04 1598.43 2002.98 1602.61 1999.13 1603.92 1996.13 1604.95 1993.37 1606.6 1991.04 1608.76 1989.78 1609.88 1988.58 1612.59 1987.75 1616.2 1987.64 1616.67 1987.21 1617.01 1986.73 1617.01Z" fill="#000000" fill-rule="nonzero" fill-opacity="1"/><path d="M2001.33 1647.49C2000.87 1645.63 2000.05 1643.88 1998.9 1642.35 1998.13 1641.41 1997.05 1640.19 1995.94 1638.92 1994.61 1637.41 1993.23 1635.85 1992.26 1634.66 1991.8 1634.1 1991.27 1633.45 1990.76 1632.72 1991.64 1632.32 1992.59 1632.09 1993.55 1632.05 1994.68 1632.14 1995.78 1632.44 1996.8 1632.92 1997.29 1633.22 1997.94 1633.06 1998.24 1632.56 1998.54 1632.06 1998.38 1631.41 1997.88 1631.11 1996.62 1630.47 1995.24 1630.07 1993.82 1629.96 1992.37 1629.95 1990.93 1630.28 1989.62 1630.9 1988.84 1629.51 1988.41 1627.94 1988.36 1626.34 1988.48 1623.36 1989.53 1620.5 1991.37 1618.16 1991.75 1617.72 1991.69 1617.05 1991.25 1616.68 1990.81 1616.3 1990.14 1616.35 1989.77 1616.8 1987.59 1619.52 1986.36 1622.87 1986.26 1626.36 1986.29 1630.61 1988.9 1633.87 1990.53 1635.86 1991.19 1638.02 1991.17 1640.32 1990.47 1642.46 1990.06 1643.75 1989.53 1645 1988.9 1646.19 1988.3 1647.32 1987.8 1648.49 1987.41 1649.7 1986.99 1651.68 1986.8 1653.7 1986.84 1655.73 1986.85 1656.3 1987.32 1656.76 1987.89 1656.76L1987.91 1656.76C1988.49 1656.75 1988.95 1656.27 1988.94 1655.69 1988.94 1655.69 1988.94 1655.69 1988.94 1655.69 1988.91 1653.87 1989.07 1652.05 1989.44 1650.27 1989.8 1649.18 1990.25 1648.13 1990.78 1647.12 1991.48 1645.81 1992.05 1644.44 1992.49 1643.02 1992.88 1641.67 1993.07 1640.27 1993.09 1638.86 1993.51 1639.34 1993.93 1639.83 1994.35 1640.31 1995.45 1641.56 1996.51 1642.77 1997.28 1643.69 1998.21 1644.98 1998.89 1646.43 1999.27 1647.97 1999.38 1648.44 1999.81 1648.78 2000.29 1648.78 2000.38 1648.78 2000.46 1648.77 2000.55 1648.75 2001.11 1648.62 2001.46 1648.05 2001.33 1647.49Z" fill="#000000" fill-rule="nonzero" fill-opacity="1"/></g></g></g><g><g><g><path d="M2316.61 1570.58C2316.83 1570.58 2317.06 1570.55 2317.27 1570.49 2318.86 1570.03 2320.39 1568.44 2319.78 1567.29 2319.21 1566.22 2318.76 1565.1 2318.42 1563.94 2318.12 1563.1 2317.27 1562.58 2316.38 1562.69 2315.68 1562.68 2314.99 1562.88 2314.41 1563.28 2313.02 1564.49 2312.54 1566.43 2313.21 1568.14 2313.81 1569.52 2315.12 1570.45 2316.61 1570.58ZM2315.72 1564.95C2315.93 1564.85 2316.16 1564.81 2316.38 1564.81 2316.41 1564.81 2316.44 1564.81 2316.47 1564.81 2316.79 1565.85 2317.19 1566.86 2317.67 1567.84 2317.4 1568.12 2317.06 1568.32 2316.69 1568.44 2316.66 1568.44 2316.64 1568.45 2316.61 1568.45 2315.96 1568.31 2315.42 1567.87 2315.15 1567.27 2314.88 1566.45 2315.11 1565.55 2315.72 1564.95Z" fill="#000000" fill-rule="nonzero" fill-opacity="1"/><path d="M2331.48 1591.14C2331.27 1590.24 2330.36 1588.86 2329.33 1588.83L2329.3 1588.83C2328.28 1588.83 2326.58 1590.13 2326.51 1591.08 2326.44 1592.08 2327.01 1593.02 2327.92 1593.43 2328.73 1593.63 2329.58 1593.57 2330.36 1593.28 2331.18 1592.9 2331.64 1592.02 2331.48 1591.14Z" fill="#000000" fill-rule="nonzero" fill-opacity="1"/><path d="M2311.28 1584.34C2312.33 1584.94 2313.54 1585.26 2314.76 1585.26L2314.91 1585.26C2316.21 1585.18 2317.27 1584.18 2317.44 1582.88 2317.49 1581.57 2316.76 1579.28 2315.26 1578.77 2314.95 1578.67 2314.63 1578.63 2314.3 1578.63 2312.73 1578.63 2310.6 1579.48 2310.19 1580.52 2309.71 1581.89 2310.14 1583.42 2311.28 1584.34ZM2312.14 1581.42C2312.79 1581.01 2313.54 1580.78 2314.3 1580.76 2314.39 1580.76 2314.48 1580.76 2314.57 1580.78 2315.03 1581.31 2315.29 1581.98 2315.31 1582.69 2315.25 1582.93 2315.04 1583.11 2314.8 1583.14L2314.75 1583.14C2313.97 1583.14 2313.19 1582.95 2312.5 1582.58 2312.19 1582.28 2312.06 1581.84 2312.14 1581.42Z" fill="#000000" fill-rule="nonzero" fill-opacity="1"/><path d="M2328.59 1605.06 2328.59 1605.06C2328.55 1605.06 2328.51 1605.06 2328.47 1605.07 2327.1 1605.35 2325.69 1605.25 2324.37 1604.8 2322.55 1604.15 2321.01 1602.88 2320.02 1601.22 2319.18 1599.89 2318.76 1598.35 2318.82 1596.78 2318.84 1596.49 2318.62 1596.24 2318.33 1596.22 2318.33 1596.22 2318.33 1596.22 2318.33 1596.22L2318.29 1596.22C2318.19 1596.22 2318.09 1596.25 2318.01 1596.3 2311.99 1600.34 2303.83 1598.74 2299.79 1592.72 2297.07 1588.65 2296.83 1583.41 2299.17 1579.11 2299.32 1578.86 2299.23 1578.54 2298.97 1578.4L2298.96 1578.39C2294.74 1576.13 2292.94 1571.04 2294.78 1566.63 2294.88 1566.36 2294.74 1566.05 2294.47 1565.95 2294.41 1565.93 2294.34 1565.92 2294.28 1565.92L2256.88 1565.92 2256.88 1638.17 2329.12 1638.17 2329.12 1605.59C2329.12 1605.3 2328.89 1605.06 2328.59 1605.06ZM2327 1636.04 2259 1636.04 2259 1568.04 2292.14 1568.04C2291.28 1572.4 2293.04 1576.86 2296.65 1579.45 2293.37 1587.21 2296.99 1596.16 2304.75 1599.45 2308.66 1601.1 2313.07 1601.05 2316.94 1599.32 2317.19 1600.39 2317.62 1601.4 2318.2 1602.33 2319.45 1604.41 2321.39 1606 2323.68 1606.81 2324.72 1607.17 2325.82 1607.35 2326.93 1607.35L2327 1607.35Z" fill="#000000" fill-rule="nonzero" fill-opacity="1"/><path d="M2265.38 1597.75 2267.5 1595.62 2267.5 1576.5 2286.62 1576.5 2288.75 1574.38 2265.38 1574.38 2265.38 1597.75Z" fill="#000000" fill-rule="nonzero" fill-opacity="1"/><path d="M2265.38 1629.63 2267.5 1627.5 2267.5 1608.38 2286.62 1608.38 2288.75 1606.25 2265.38 1606.25 2265.38 1629.63Z" fill="#000000" fill-rule="nonzero" fill-opacity="1"/><path d="M2296.19 1629.63 2298.31 1627.5 2298.31 1608.38 2317.44 1608.38 2319.56 1606.25 2296.19 1606.25 2296.19 1629.63Z" fill="#000000" fill-rule="nonzero" fill-opacity="1"/></g></g></g><g><g><g><path d="M82.6147 18.2396 66.2173 18.2396C60.3272 10.1115 48.9632 8.29728 40.835 14.1874 39.2786 15.3154 37.9108 16.6831 36.7829 18.2396L20.3854 18.2396C17.4241 18.2431 15.0244 20.6428 15.0209 23.6042L15.0209 85.8334C15.0244 88.7948 17.4241 91.1945 20.3854 91.198L82.6147 91.198C85.576 91.1945 87.9757 88.7948 87.9793 85.8334L87.9793 23.6042C87.9757 20.6428 85.576 18.2431 82.6147 18.2396ZM51.5001 12.875C60.3884 12.875 67.5938 20.0804 67.5938 28.9688 67.5938 37.8572 60.3884 45.0626 51.5001 45.0626 42.6117 45.0626 35.4063 37.8572 35.4063 28.9688 35.4164 20.0846 42.6159 12.8851 51.5001 12.875ZM17.1667 85.8334 17.1667 23.6042C17.1667 21.8265 18.6077 20.3854 20.3854 20.3854L35.4149 20.3854C30.6699 29.2505 34.0099 40.2837 42.875 45.0287 45.208 46.2774 47.7852 47.0026 50.4271 47.1537L50.4271 89.0522 20.3854 89.0522C18.6077 89.0522 17.1667 87.6112 17.1667 85.8334ZM85.8334 85.8334C85.8334 87.6112 84.3924 89.0522 82.6147 89.0522L52.573 89.0522 52.573 47.1537C62.6116 46.5797 70.2843 37.9764 69.7103 27.9376 69.5592 25.2958 68.834 22.7185 67.5853 20.3854L82.6147 20.3854C84.3924 20.3854 85.8334 21.8265 85.8334 23.6042Z" fill="#000000" fill-rule="nonzero" fill-opacity="1" transform="matrix(1.00971 0 0 1 1784 1493)"/><path d="M51.5001 33.2605C53.8547 33.2641 55.7711 31.3673 55.7917 29.0128L56.2209 18.5239 48.4433 25.9646 48.424 25.9861C46.7766 27.6903 46.8228 30.4072 48.527 32.0545 49.3248 32.8257 50.3905 33.258 51.5001 33.2605ZM53.8605 23.749 53.6459 28.9688C53.6467 30.1539 52.6866 31.1153 51.5015 31.116 50.3163 31.1168 49.355 30.1567 49.3542 28.9716 49.3539 28.4087 49.5746 27.8683 49.969 27.4667Z" fill="#000000" fill-rule="nonzero" fill-opacity="1" transform="matrix(1.00971 0 0 1 1784 1493)"/></g></g></g><g><g><g><path d="M1750.19 1415.04 1733.86 1415.04 1740.32 1408.58C1740.8 1408.12 1740.85 1407.36 1740.41 1406.85 1739.96 1406.34 1739.18 1406.3 1738.68 1406.75 1738.66 1406.77 1738.65 1406.78 1738.63 1406.8L1730.39 1415.04 1669.68 1415.04C1669.31 1415.06 1669.02 1415.38 1669.04 1415.76 1669.05 1415.9 1669.1 1416.04 1669.19 1416.15L1706.31 1454.38 1706.31 1478.19C1706.27 1480.02 1704.93 1481.55 1703.12 1481.84 1698.45 1482.46 1695.25 1483.69 1695.25 1485.1 1695.25 1487.14 1701.85 1488.79 1710 1488.79 1718.15 1488.79 1724.75 1487.14 1724.75 1485.1 1724.75 1483.69 1721.55 1482.46 1716.88 1481.84 1715.07 1481.55 1713.73 1480.02 1713.69 1478.19L1713.69 1454.38 1750.69 1416.15C1750.93 1415.88 1750.91 1415.46 1750.64 1415.21 1750.52 1415.1 1750.36 1415.04 1750.19 1415.04ZM1727.93 1417.5 1720.55 1424.88 1681.1 1424.88 1673.96 1417.52C1673.94 1417.51 1673.96 1417.5 1673.97 1417.5ZM1711.23 1478.19C1711.25 1481.28 1713.54 1483.88 1716.6 1484.28 1717.96 1484.45 1719.31 1484.72 1720.62 1485.1 1720.63 1485.1 1720.63 1485.1 1720.63 1485.11 1720.63 1485.11 1720.63 1485.12 1720.62 1485.12 1717.15 1486 1713.58 1486.41 1710 1486.33 1706.42 1486.41 1702.85 1486 1699.38 1485.12 1699.37 1485.12 1699.37 1485.11 1699.37 1485.1 1699.37 1485.1 1699.37 1485.1 1699.38 1485.1 1700.69 1484.72 1702.04 1484.45 1703.4 1484.28 1706.46 1483.88 1708.75 1481.28 1708.77 1478.19L1708.77 1453.38 1708.08 1452.66 1683.48 1427.33 1718.1 1427.33 1713.38 1432.04C1711.96 1431.1 1710.21 1430.79 1708.55 1431.18 1706.36 1431.81 1704.64 1433.52 1704.02 1435.71 1703.62 1437.37 1703.94 1439.13 1704.88 1440.55L1703.04 1442.39C1702.56 1442.85 1702.51 1443.6 1702.93 1444.11 1703.37 1444.63 1704.15 1444.68 1704.66 1444.24 1704.69 1444.22 1704.71 1444.2 1704.73 1444.18L1706.62 1442.29C1708.05 1443.23 1709.8 1443.55 1711.46 1443.15 1713.65 1442.53 1715.37 1440.81 1715.99 1438.62 1716.38 1436.96 1716.07 1435.21 1715.13 1433.79L1721.57 1427.33 1736.44 1427.33 1711.92 1452.67 1711.23 1453.38 1711.23 1478.19ZM1706.38 1437.89C1705.99 1435.89 1707.29 1433.94 1709.29 1433.55 1709.77 1433.46 1710.25 1433.46 1710.72 1433.55 1712.15 1433.9 1713.26 1435.02 1713.62 1436.45 1714.01 1438.45 1712.71 1440.39 1710.71 1440.79 1710.23 1440.88 1709.75 1440.88 1709.28 1440.79 1707.85 1440.43 1706.74 1439.32 1706.38 1437.89ZM1738.82 1424.88 1724.03 1424.88 1731.4 1417.5 1745.93 1417.5C1745.94 1417.5 1745.95 1417.51 1745.94 1417.52Z" fill="#000000" fill-rule="nonzero" fill-opacity="1"/></g></g></g><g><g><g><path d="M53.381 12.742 52.0259 14.097 56.14 18.2112 35.8502 18.2112 39.9643 14.097 38.6092 12.742 32.1817 19.1695 38.6092 25.597 39.9643 24.2419 35.8502 20.1278 56.14 20.1278 52.0259 24.2419 53.381 25.597 59.8085 19.1695 53.381 12.742Z" fill="#000000" fill-rule="nonzero" fill-opacity="1" transform="matrix(1 0 0 1 1559 993)"/><path d="M24.9195 82.4193 20.1364 82.4193 20.1364 55.5861 18.2198 55.5861 18.2198 82.4193 13.4281 82.4193 13.4281 34.4827 11.5115 34.4827 11.5115 84.336 26.8361 84.336 26.8457 34.4827 24.9291 34.4827 24.9195 82.4193Z" fill="#000000" fill-rule="nonzero" fill-opacity="1" transform="matrix(1 0 0 1 1559 993)"/><path d="M19.1777 21.0865C22.8826 21.0865 25.8861 18.0831 25.8861 14.3782 25.8861 10.6733 22.8826 7.66992 19.1777 7.66992 15.4728 7.66992 12.4694 10.6733 12.4694 14.3782 12.4737 18.0813 15.4746 21.0822 19.1777 21.0865ZM19.1777 9.58657C21.8242 9.58657 23.9694 11.7319 23.9694 14.3782 23.9694 17.0246 21.8242 19.1699 19.1777 19.1699 16.5314 19.1699 14.3861 17.0246 14.3861 14.3782 14.3892 11.7331 16.5327 9.58973 19.1777 9.58657Z" fill="#000000" fill-rule="nonzero" fill-opacity="1" transform="matrix(1 0 0 1 1559 993)"/><path d="M32.6599 31.062C32.5823 30.4546 32.3986 29.8656 32.1171 29.3218 31.9161 28.9473 31.6754 28.5956 31.3993 28.2727 29.5132 26.2722 27.1609 24.7702 24.5524 23.9012 21.0747 22.7063 17.2979 22.7045 13.8189 23.8961 11.1879 24.7729 8.81676 26.2913 6.91971 28.3143 6.65921 28.6253 6.43152 28.9625 6.24026 29.3203 5.95815 29.8648 5.7741 30.4547 5.69651 31.063L2.92077 50.0442C2.66554 51.2545 2.95241 52.5159 3.70596 53.4967 4.42327 54.274 5.45108 54.6892 6.50707 54.6281L6.50707 52.7115C6.00784 52.7586 5.5129 52.5855 5.15192 52.2375 4.77664 51.6713 4.65547 50.9739 4.81778 50.3143L7.59264 31.3409C7.63959 30.9522 7.75359 30.5746 7.92955 30.2249 8.05015 29.9995 8.19146 29.7858 8.35162 29.5866 10.028 27.8109 12.1188 26.4789 14.4367 25.7102 15.9639 25.1805 17.5698 24.9135 19.1862 24.9203 20.8024 24.9181 22.4075 25.187 23.9348 25.7154 26.23 26.4764 28.3021 27.7917 29.9674 29.545 30.1435 29.7559 30.2978 29.9842 30.4279 30.2262 30.6031 30.5754 30.7168 30.9522 30.7639 31.3399L33.5377 50.3067C33.7014 50.9687 33.5807 51.6691 33.2045 52.2379 32.8431 52.5856 32.3479 52.7585 31.8485 52.7115L31.8485 54.6281C32.9044 54.6891 33.9321 54.2741 34.6496 53.4971 35.4046 52.514 35.6914 51.2499 35.4348 50.0372Z" fill="#000000" fill-rule="nonzero" fill-opacity="1" transform="matrix(1 0 0 1 1559 993)"/><path d="M72.8649 21.1596C76.59 21.1596 79.6097 18.1398 79.6097 14.4147 79.6097 10.6896 76.5899 7.6699 72.8649 7.66992 69.1397 7.66993 66.12 10.6897 66.12 14.4147 66.1243 18.138 69.1416 21.1553 72.8649 21.1596ZM72.8649 9.58657C75.5314 9.58657 77.693 11.7483 77.693 14.4147 77.693 17.0813 75.5313 19.2429 72.8649 19.2429 70.1983 19.2429 68.0367 17.0813 68.0367 14.4147 68.0397 11.7494 70.1996 9.58954 72.8649 9.58657Z" fill="#000000" fill-rule="nonzero" fill-opacity="1" transform="matrix(1 0 0 1 1559 993)"/><path d="M80.5325 34.483 78.6158 34.483 78.6139 44.0865 83.1042 60.3781 62.6255 60.3781 67.0793 44.3429 67.1139 34.483 65.1973 34.483 65.1973 43.956 60.1043 62.2948 65.1973 62.2948 65.1973 84.3364 80.5222 84.3364 80.5266 62.2948 85.6254 62.2948 80.5306 43.956ZM71.9065 82.4197 67.1139 82.4197 67.1139 62.2948 71.9065 62.2948ZM78.6055 82.4197 73.8232 82.4197 73.8232 62.2948 78.61 62.2948Z" fill="#000000" fill-rule="nonzero" fill-opacity="1" transform="matrix(1 0 0 1 1559 993)"/><path d="M89.0714 50.0485 86.3049 31.1359C86.2276 30.53 86.0445 29.9425 85.764 29.3999 85.564 29.0262 85.3239 28.6754 85.048 28.3536 81.8734 25.0193 77.4771 23.1225 72.8733 23.1006 71.0517 23.0875 69.2414 23.3884 67.522 23.9901 64.899 24.8645 62.5352 26.3786 60.6443 28.3957 60.3846 28.706 60.1573 29.042 59.9658 29.3985 59.6854 29.9416 59.5024 30.5296 59.4249 31.136L56.6575 50.0559C56.3505 52.274 57.1993 53.915 58.9288 54.4457L59.4904 52.6132C58.6939 52.369 58.3795 51.5964 58.5545 50.3255L61.3209 31.4129C61.3672 31.0268 61.4803 30.6517 61.655 30.3044 61.7755 30.0796 61.9164 29.8664 62.0762 29.6675 63.7465 27.8978 65.8299 26.5703 68.1396 25.8043 69.6606 25.2717 71.2619 25.0054 72.8733 25.0172 76.9296 25.0394 80.8046 26.7015 83.6162 29.6255 83.7918 29.835 83.9451 30.0623 84.0738 30.3035 84.2492 30.651 84.3625 31.0264 84.4088 31.4129L87.1744 50.3179C87.3541 51.6202 87.0228 52.3969 86.1898 52.6272L86.7008 54.4746C88.4996 53.9777 89.3858 52.3259 89.0714 50.0485Z" fill="#000000" fill-rule="nonzero" fill-opacity="1" transform="matrix(1 0 0 1 1559 993)"/></g></g></g><g><g><g><path d="M1660.81 855.957C1659.71 855.46 1658.52 855.171 1657.32 855.105 1656.31 855.015 1655.36 855.545 1654.9 856.443 1653.69 858.863 1654.07 867.129 1653.23 868.62 1652.96 869.316 1652.28 869.767 1651.53 869.751 1651.4 869.751 1651.26 869.741 1651.12 869.729 1649.71 869.596 1649.71 866.44 1649.71 866.44L1649.71 845.398 1647.6 845.398 1647.6 847.502 1643.4 847.502 1643.4 845.398 1641.29 845.398 1641.29 866.447C1641.29 866.524 1641.27 869.598 1639.88 869.729 1639.74 869.741 1639.6 869.751 1639.47 869.751 1638.72 869.767 1638.04 869.316 1637.77 868.62 1636.93 867.129 1637.31 858.864 1636.1 856.443 1635.64 855.545 1634.69 855.015 1633.68 855.105 1632.48 855.171 1631.29 855.46 1630.19 855.957 1614.53 862.768 1603.42 879.922 1603.42 900.022 1603.38 908.947 1605.66 917.729 1610.03 925.507 1610.26 925.804 1611.41 927.26 1612.5 927.26 1620.44 927.26 1633.88 919.189 1636.3 911.926 1638.72 904.662 1637.64 890.237 1640.34 886.101 1641.3 884.562 1642.74 883.39 1644.45 882.771 1645.13 882.521 1645.87 882.521 1646.55 882.771 1648.26 883.389 1649.71 884.563 1650.67 886.103 1653.37 890.239 1652.28 904.665 1654.7 911.928 1657.12 919.19 1670.56 927.26 1678.5 927.26 1679.59 927.26 1680.74 925.804 1680.97 925.507 1685.34 917.729 1687.62 908.947 1687.58 900.022 1687.58 879.922 1676.47 862.768 1660.81 855.957ZM1643.4 849.607 1647.6 849.607 1647.6 851.711 1643.4 851.711ZM1643.4 853.815 1647.6 853.815 1647.6 855.919 1643.4 855.919ZM1643.4 858.023 1647.6 858.023 1647.6 860.127 1643.4 860.127ZM1643.4 862.232 1647.6 862.232 1647.6 864.336 1643.4 864.336ZM1679.21 924.339C1678.97 924.653 1678.68 924.928 1678.36 925.155 1670.8 925.056 1658.71 917.326 1656.69 911.261 1655.64 908.093 1655.29 903.258 1654.95 898.581 1654.52 892.689 1654.15 887.596 1652.42 884.951 1651.09 882.802 1648.99 881.238 1646.55 880.573 1645.86 880.412 1645.14 880.412 1644.45 880.573 1642.01 881.238 1639.91 882.802 1638.58 884.95 1636.85 887.595 1636.48 892.686 1636.05 898.581 1635.72 903.257 1635.36 908.092 1634.31 911.26 1632.29 917.326 1620.2 925.056 1612.64 925.155 1612.32 924.928 1612.03 924.653 1611.79 924.339 1607.64 916.907 1605.49 908.532 1605.52 900.022 1605.52 881.456 1615.77 864.523 1630.98 857.906 1631.83 857.509 1632.74 857.273 1633.68 857.209 1634.13 857.209 1634.18 857.303 1634.22 857.385 1634.68 858.316 1634.88 861.539 1635.01 863.672 1635.21 866.878 1635.34 868.601 1635.93 869.654 1636.59 871.009 1637.96 871.866 1639.47 871.855 1639.66 871.855 1639.86 871.843 1640.07 871.823 1641.24 871.702 1642.24 870.956 1642.69 869.877 1643.08 868.984 1643.31 868.035 1643.4 867.066L1643.4 866.44 1647.6 866.44 1647.6 867.071C1647.69 868.034 1647.92 868.977 1648.3 869.866 1648.75 870.949 1649.76 871.701 1650.93 871.825 1651.14 871.844 1651.33 871.856 1651.53 871.856 1653.04 871.867 1654.41 871.01 1655.07 869.655 1655.66 868.603 1655.79 866.879 1655.99 863.673 1656.12 861.54 1656.32 858.317 1656.78 857.386 1656.82 857.304 1656.87 857.21 1657.32 857.21 1658.24 857.27 1659.14 857.5 1659.97 857.888 1675.23 864.524 1685.48 881.456 1685.48 900.022 1685.51 908.532 1683.36 916.907 1679.21 924.339Z" fill="#000000" fill-rule="nonzero" fill-opacity="1"/><path d="M1674.96 899.733C1674.36 898.389 1673.89 896.996 1673.54 895.569 1672.97 893.506 1672.3 891.474 1671.51 889.484 1670.2 886.347 1668.19 883.55 1665.64 881.308 1667.33 880.646 1669.17 880.445 1670.97 880.724 1673.04 881.171 1674.89 882.327 1676.2 883.992 1676.54 884.465 1677.2 884.575 1677.67 884.237 1678.14 883.899 1678.25 883.242 1677.92 882.769 1676.29 880.653 1673.96 879.192 1671.34 878.654 1668.76 878.252 1666.11 878.659 1663.77 879.821 1663.05 879.319 1662.31 878.855 1661.54 878.432 1662.68 877.399 1663.65 876.198 1664.42 874.87 1665.37 873.062 1665.9 871.062 1665.96 869.022 1665.96 868.441 1665.49 867.97 1664.91 867.97 1664.33 867.97 1663.86 868.441 1663.86 869.022 1663.79 870.71 1663.35 872.363 1662.57 873.861 1661.77 875.204 1660.74 876.401 1659.53 877.405 1657.24 876.398 1654.88 875.572 1652.45 874.934 1651.26 874.646 1650.1 874.251 1648.97 873.755 1647.77 873.058 1646.9 871.913 1646.54 870.571L1646.5 870.445C1646.32 869.892 1645.73 869.589 1645.18 869.767 1644.82 869.883 1644.55 870.182 1644.47 870.55 1644.11 871.902 1643.24 873.056 1642.03 873.759 1640.9 874.257 1639.74 874.653 1638.54 874.942 1636.13 875.578 1633.77 876.4 1631.48 877.402 1630.28 876.4 1629.26 875.204 1628.46 873.865 1627.68 872.365 1627.24 870.713 1627.17 869.025 1627.17 868.444 1626.7 867.973 1626.12 867.973 1625.54 867.973 1625.07 868.444 1625.07 869.025 1625.13 871.066 1625.66 873.065 1626.61 874.873 1627.38 876.196 1628.34 877.393 1629.47 878.422 1628.7 878.849 1627.95 879.317 1627.23 879.825 1624.88 878.664 1622.24 878.256 1619.65 878.657 1617.04 879.194 1614.7 880.656 1613.08 882.774 1612.75 883.255 1612.88 883.909 1613.36 884.234 1613.82 884.548 1614.45 884.443 1614.79 883.996 1616.1 882.329 1617.95 881.171 1620.03 880.724 1621.83 880.444 1623.66 880.646 1625.36 881.308 1622.8 883.55 1620.79 886.346 1619.49 889.484 1618.7 891.476 1618.02 893.509 1617.46 895.574 1617.11 896.999 1616.63 898.391 1616.04 899.733 1615.28 900.765 1614.37 901.676 1613.34 902.435 1612.87 902.764 1612.74 903.419 1613.07 903.898 1613.27 904.183 1613.59 904.353 1613.94 904.354 1614.15 904.354 1614.36 904.289 1614.53 904.168 1615.76 903.273 1616.84 902.193 1617.74 900.965 1618.52 899.448 1619.11 897.836 1619.47 896.169 1620.02 894.326 1620.63 892.276 1621.29 890.641 1622.26 892.111 1622.98 893.729 1623.43 895.431 1623.74 896.56 1623.82 897.742 1623.66 898.903 1623.46 899.449 1623.74 900.053 1624.28 900.253 1624.8 900.444 1625.38 900.2 1625.6 899.694 1625.74 899.391 1626.12 898.157 1625.49 895.023 1624.85 892.647 1623.79 890.406 1622.35 888.403 1624.54 884.385 1628 881.209 1632.19 879.374 1631.49 880.585 1631 881.913 1630.76 883.295 1630.45 885.708 1630.49 888.152 1630.86 890.555 1630.97 891.126 1631.52 891.502 1632.09 891.395 1632.65 891.291 1633.02 890.761 1632.94 890.199 1632.61 888.017 1632.57 885.799 1632.84 883.608 1633.32 881.539 1634.3 879.617 1635.69 878.01 1636.9 877.602 1638.07 877.266 1639.13 876.964 1640.48 876.642 1641.79 876.188 1643.05 875.609 1644.04 875.059 1644.89 874.27 1645.5 873.313 1646.12 874.271 1646.97 875.059 1647.97 875.606 1649.23 876.185 1650.54 876.639 1651.88 876.961 1652.94 877.263 1654.11 877.592 1655.33 878.005 1656.71 879.609 1657.67 881.525 1658.15 883.587 1658.42 885.778 1658.39 887.996 1658.06 890.178 1657.96 890.751 1658.34 891.295 1658.91 891.393 1658.97 891.403 1659.03 891.408 1659.09 891.408 1659.6 891.408 1660.04 891.039 1660.13 890.535 1660.5 888.132 1660.54 885.688 1660.23 883.275 1659.99 881.898 1659.51 880.575 1658.8 879.367 1662.99 881.196 1666.45 884.362 1668.64 888.367 1667.2 890.367 1666.13 892.608 1665.49 894.984 1664.86 898.117 1665.24 899.351 1665.37 899.655 1665.54 900.033 1665.91 900.275 1666.32 900.27 1666.45 900.269 1666.58 900.245 1666.71 900.199 1667.23 899.989 1667.5 899.408 1667.33 898.869 1667.16 897.709 1667.24 896.525 1667.56 895.398 1668.01 893.694 1668.73 892.074 1669.7 890.603 1670.36 892.237 1670.98 894.31 1671.53 896.164 1671.9 897.833 1672.48 899.448 1673.26 900.967 1674.16 902.195 1675.24 903.276 1676.47 904.171 1676.95 904.495 1677.61 904.367 1677.93 903.885 1678.25 903.41 1678.13 902.766 1677.66 902.437 1676.63 901.679 1675.72 900.767 1674.96 899.733Z" fill="#000000" fill-rule="nonzero" fill-opacity="1"/></g></g></g><g><g><g><path d="M115.668 63.1199C114.647 61.9573 90.3572 34.6666 63.9999 34.6666 37.6426 34.6666 13.3533 61.9573 12.332 63.1199 11.8898 63.6233 11.8898 64.3766 12.332 64.8799 13.3533 66.0426 37.6426 93.3332 63.9999 93.3332 90.3572 93.3332 114.647 66.0426 115.668 64.8799 116.11 64.3766 116.11 63.6233 115.668 63.1199ZM38.6666 63.9999C38.6666 50.0087 50.0087 38.6666 63.9999 38.6666 77.9911 38.6666 89.3332 50.0087 89.3332 63.9999 89.3332 77.9911 77.9911 89.3332 63.9999 89.3332 50.0151 89.3178 38.6821 77.9847 38.6666 63.9999ZM15.1453 63.9999C18.612 60.3199 32.7146 46.1106 49.4826 40.0733 49.5479 40.0493 49.5533 40.06 49.4933 40.096 36.2914 48.0635 32.0482 65.2246 40.0158 78.4265 42.3586 82.3083 45.6114 85.5611 49.4933 87.9039 49.5533 87.9399 49.5479 87.9506 49.4826 87.9266 32.7146 81.8892 18.6066 67.6799 15.1453 63.9999ZM78.5173 87.9266C78.4519 87.9506 78.4466 87.9399 78.5066 87.9039 91.7084 79.9363 95.9516 62.7753 87.984 49.5734 85.6413 45.6916 82.3885 42.4388 78.5066 40.096 78.4466 40.06 78.4519 40.0493 78.5173 40.0733 95.2852 46.1106 109.393 60.3199 112.855 63.9999 109.393 67.6799 95.2852 81.8892 78.5173 87.9266Z" fill="#000000" fill-rule="nonzero" fill-opacity="1" transform="matrix(1.00781 0 0 1 1677 697)"/><path d="M63.9999 51.9999C57.3725 51.9999 51.9999 57.3725 51.9999 63.9999 51.9999 70.6274 57.3725 75.9999 63.9999 75.9999 70.6274 75.9999 75.9999 70.6274 75.9999 63.9999 75.9918 57.3758 70.6241 52.0081 63.9999 51.9999ZM63.9999 73.3333C58.8453 73.3333 54.6666 69.1546 54.6666 63.9999 54.6666 58.8453 58.8453 54.6666 63.9999 54.6666 69.1546 54.6666 73.3333 58.8453 73.3333 63.9999 73.3274 69.1522 69.1522 73.3274 63.9999 73.3333Z" fill="#000000" fill-rule="nonzero" fill-opacity="1" transform="matrix(1.00781 0 0 1 1677 697)"/></g></g></g></g></g></svg>